  0
SECTION
  2
HEADER
  9
$ACADVER
  1
AC1009
  9
$INSBASE
 10
0.0
 20
0.0
 30
0.0
  9
$EXTMIN
 10
-1.4e-005
 20
0
 30
0
  9
$EXTMAX
 10
80
 20
80
 30
5
  9
$LIMMIN
 10
-40
 20
-40
  9
$LIMMAX
 10
120
 20
120
  9
$CLAYER
  8
Z88NET
  9
$PDMODE
 70
     3
  9
$PDSIZE
 40
-3.0
  0
ENDSEC
  0
SECTION
  2
TABLES
  0
TABLE
  2
LTYPE
 70
     1
  0
LTYPE
  2
CONTINUOUS
 70
    64
  3
Solid line
 72
    65
 73
     0
 40
0.0
  0
ENDTAB
  0
TABLE
  2
LAYER
 70
     6
  0
LAYER
  2
0
 70
    64
 62
    -7
  6
CONTINUOUS
  0
LAYER
  2
Z88NET
 70
    64
 62
     5
  6
CONTINUOUS
  0
LAYER
  2
Z88EIO
 70
    64
 62
     5
  6
CONTINUOUS
  0
LAYER
  2
Z88KNR
 70
    64
 62
     1
  6
CONTINUOUS
  0
LAYER
  2
Z88RBD
 70
    64
 62
     6
  6
CONTINUOUS
  0
LAYER
  2
Z88FLA
 70
    64
 62
     6
  6
CONTINUOUS
  0
LAYER
  2
Z88GEN
 70
    64
 62
     6
  6
CONTINUOUS
  0
LAYER
  2
Z88PKT
 70
    64
 62
     1
  6
CONTINUOUS
  0
ENDTAB
  0
ENDSEC
  0
SECTION
  2
ENTITIES
  0
TEXT
  8
Z88GEN
 10
-40
 20
119.176
 30
0.0
 40
0.54945
  1
Z88NI.TXT 3 32 2 96 0 0 0
  0
POINT
  8
Z88PKT
 10
20
 20
0
 30
5
  0
TEXT
  8
Z88KNR
 10
20
 20
0
 30
5
 40
0.54945
  1
P 1
  0
POINT
  8
Z88PKT
 10
80
 20
0
 30
5
  0
TEXT
  8
Z88KNR
 10
80
 20
0
 30
5
 40
0.54945
  1
P 2
  0
POINT
  8
Z88PKT
 10
56.5685
 20
56.5685
 30
5
  0
TEXT
  8
Z88KNR
 10
56.5685
 20
56.5685
 30
5
 40
0.54945
  1
P 3
  0
POINT
  8
Z88PKT
 10
14.1421
 20
14.1421
 30
5
  0
TEXT
  8
Z88KNR
 10
14.1421
 20
14.1421
 30
5
 40
0.54945
  1
P 4
  0
POINT
  8
Z88PKT
 10
20
 20
0
 30
0
  0
TEXT
  8
Z88KNR
 10
20
 20
0
 30
0
 40
0.54945
  1
P 5
  0
POINT
  8
Z88PKT
 10
80
 20
0
 30
0
  0
TEXT
  8
Z88KNR
 10
80
 20
0
 30
0
 40
0.54945
  1
P 6
  0
POINT
  8
Z88PKT
 10
56.5685
 20
56.5685
 30
0
  0
TEXT
  8
Z88KNR
 10
56.5685
 20
56.5685
 30
0
 40
0.54945
  1
P 7
  0
POINT
  8
Z88PKT
 10
14.1421
 20
14.1421
 30
0
  0
TEXT
  8
Z88KNR
 10
14.1421
 20
14.1421
 30
0
 40
0.54945
  1
P 8
  0
POINT
  8
Z88PKT
 10
50
 20
0
 30
5
  0
TEXT
  8
Z88KNR
 10
50
 20
0
 30
5
 40
0.54945
  1
P 9
  0
POINT
  8
Z88PKT
 10
73.9104
 20
30.6147
 30
5
  0
TEXT
  8
Z88KNR
 10
73.9104
 20
30.6147
 30
5
 40
0.54945
  1
P 10
  0
POINT
  8
Z88PKT
 10
35.3553
 20
35.3553
 30
5
  0
TEXT
  8
Z88KNR
 10
35.3553
 20
35.3553
 30
5
 40
0.54945
  1
P 11
  0
POINT
  8
Z88PKT
 10
18.4776
 20
7.65367
 30
5
  0
TEXT
  8
Z88KNR
 10
18.4776
 20
7.65367
 30
5
 40
0.54945
  1
P 12
  0
POINT
  8
Z88PKT
 10
50
 20
0
 30
0
  0
TEXT
  8
Z88KNR
 10
50
 20
0
 30
0
 40
0.54945
  1
P 13
  0
POINT
  8
Z88PKT
 10
73.9104
 20
30.6147
 30
0
  0
TEXT
  8
Z88KNR
 10
73.9104
 20
30.6147
 30
0
 40
0.54945
  1
P 14
  0
POINT
  8
Z88PKT
 10
35.3553
 20
35.3553
 30
0
  0
TEXT
  8
Z88KNR
 10
35.3553
 20
35.3553
 30
0
 40
0.54945
  1
P 15
  0
POINT
  8
Z88PKT
 10
18.4776
 20
7.65367
 30
0
  0
TEXT
  8
Z88KNR
 10
18.4776
 20
7.65367
 30
0
 40
0.54945
  1
P 16
  0
POINT
  8
Z88PKT
 10
20
 20
0
 30
2.5
  0
TEXT
  8
Z88KNR
 10
20
 20
0
 30
2.5
 40
0.54945
  1
P 17
  0
POINT
  8
Z88PKT
 10
80
 20
0
 30
2.5
  0
TEXT
  8
Z88KNR
 10
80
 20
0
 30
2.5
 40
0.54945
  1
P 18
  0
POINT
  8
Z88PKT
 10
56.5685
 20
56.5685
 30
2.5
  0
TEXT
  8
Z88KNR
 10
56.5685
 20
56.5685
 30
2.5
 40
0.54945
  1
P 19
  0
POINT
  8
Z88PKT
 10
14.1421
 20
14.1421
 30
2.5
  0
TEXT
  8
Z88KNR
 10
14.1421
 20
14.1421
 30
2.5
 40
0.54945
  1
P 20
  0
POINT
  8
Z88PKT
 10
-1.4e-005
 20
80
 30
5
  0
TEXT
  8
Z88KNR
 10
-1.4e-005
 20
80
 30
5
 40
0.54945
  1
P 21
  0
POINT
  8
Z88PKT
 10
-3e-006
 20
20
 30
5
  0
TEXT
  8
Z88KNR
 10
-3e-006
 20
20
 30
5
 40
0.54945
  1
P 22
  0
POINT
  8
Z88PKT
 10
-1.4e-005
 20
80
 30
0
  0
TEXT
  8
Z88KNR
 10
-1.4e-005
 20
80
 30
0
 40
0.54945
  1
P 23
  0
POINT
  8
Z88PKT
 10
-3e-006
 20
20
 30
0
  0
TEXT
  8
Z88KNR
 10
-3e-006
 20
20
 30
0
 40
0.54945
  1
P 24
  0
POINT
  8
Z88PKT
 10
30.6147
 20
73.9104
 30
5
  0
TEXT
  8
Z88KNR
 10
30.6147
 20
73.9104
 30
5
 40
0.54945
  1
P 25
  0
POINT
  8
Z88PKT
 10
-9e-006
 20
50
 30
5
  0
TEXT
  8
Z88KNR
 10
-9e-006
 20
50
 30
5
 40
0.54945
  1
P 26
  0
POINT
  8
Z88PKT
 10
7.65367
 20
18.4776
 30
5
  0
TEXT
  8
Z88KNR
 10
7.65367
 20
18.4776
 30
5
 40
0.54945
  1
P 27
  0
POINT
  8
Z88PKT
 10
30.6147
 20
73.9104
 30
0
  0
TEXT
  8
Z88KNR
 10
30.6147
 20
73.9104
 30
0
 40
0.54945
  1
P 28
  0
POINT
  8
Z88PKT
 10
-9e-006
 20
50
 30
0
  0
TEXT
  8
Z88KNR
 10
-9e-006
 20
50
 30
0
 40
0.54945
  1
P 29
  0
POINT
  8
Z88PKT
 10
7.65367
 20
18.4776
 30
0
  0
TEXT
  8
Z88KNR
 10
7.65367
 20
18.4776
 30
0
 40
0.54945
  1
P 30
  0
POINT
  8
Z88PKT
 10
-1.4e-005
 20
80
 30
2.5
  0
TEXT
  8
Z88KNR
 10
-1.4e-005
 20
80
 30
2.5
 40
0.54945
  1
P 31
  0
POINT
  8
Z88PKT
 10
-3e-006
 20
20
 30
2.5
  0
TEXT
  8
Z88KNR
 10
-3e-006
 20
20
 30
2.5
 40
0.54945
  1
P 32
  0
TEXT
  8
Z88EIO
 10
38.2843
 20
28.2843
 30
2.5
 40
0.54945
  1
SE 1 10 1 8 L 3 e 1 e
  0
TEXT
  8
Z88EIO
 10
7.07104
 20
47.0711
 30
2.5
 40
0.54945
  1
SE 2 10 1 8 L 3 e 1 e
  0
LINE
  8
Z88NET
 10
20
 20
0
 30
5
 11
50
 21
0
 31
5
  0
LINE
  8
Z88NET
 10
50
 20
0
 30
5
 11
80
 21
0
 31
5
  0
LINE
  8
Z88NET
 10
80
 20
0
 30
5
 11
73.9104
 21
30.6147
 31
5
  0
LINE
  8
Z88NET
 10
73.9104
 20
30.6147
 30
5
 11
56.5685
 21
56.5685
 31
5
  0
LINE
  8
Z88NET
 10
56.5685
 20
56.5685
 30
5
 11
35.3553
 21
35.3553
 31
5
  0
LINE
  8
Z88NET
 10
35.3553
 20
35.3553
 30
5
 11
14.1421
 21
14.1421
 31
5
  0
LINE
  8
Z88NET
 10
14.1421
 20
14.1421
 30
5
 11
18.4776
 21
7.65367
 31
5
  0
LINE
  8
Z88NET
 10
18.4776
 20
7.65367
 30
5
 11
20
 21
0
 31
5
  0
LINE
  8
Z88NET
 10
20
 20
0
 30
0
 11
50
 21
0
 31
0
  0
LINE
  8
Z88NET
 10
50
 20
0
 30
0
 11
80
 21
0
 31
0
  0
LINE
  8
Z88NET
 10
80
 20
0
 30
0
 11
73.9104
 21
30.6147
 31
0
  0
LINE
  8
Z88NET
 10
73.9104
 20
30.6147
 30
0
 11
56.5685
 21
56.5685
 31
0
  0
LINE
  8
Z88NET
 10
56.5685
 20
56.5685
 30
0
 11
35.3553
 21
35.3553
 31
0
  0
LINE
  8
Z88NET
 10
35.3553
 20
35.3553
 30
0
 11
14.1421
 21
14.1421
 31
0
  0
LINE
  8
Z88NET
 10
14.1421
 20
14.1421
 30
0
 11
18.4776
 21
7.65367
 31
0
  0
LINE
  8
Z88NET
 10
18.4776
 20
7.65367
 30
0
 11
20
 21
0
 31
0
  0
LINE
  8
Z88NET
 10
20
 20
0
 30
5
 11
20
 21
0
 31
2.5
  0
LINE
  8
Z88NET
 10
20
 20
0
 30
2.5
 11
20
 21
0
 31
0
  0
LINE
  8
Z88NET
 10
80
 20
0
 30
5
 11
80
 21
0
 31
2.5
  0
LINE
  8
Z88NET
 10
80
 20
0
 30
2.5
 11
80
 21
0
 31
0
  0
LINE
  8
Z88NET
 10
56.5685
 20
56.5685
 30
5
 11
56.5685
 21
56.5685
 31
2.5
  0
LINE
  8
Z88NET
 10
56.5685
 20
56.5685
 30
2.5
 11
56.5685
 21
56.5685
 31
0
  0
LINE
  8
Z88NET
 10
14.1421
 20
14.1421
 30
5
 11
14.1421
 21
14.1421
 31
2.5
  0
LINE
  8
Z88NET
 10
14.1421
 20
14.1421
 30
2.5
 11
14.1421
 21
14.1421
 31
0
  0
LINE
  8
Z88NET
 10
14.1421
 20
14.1421
 30
5
 11
35.3553
 21
35.3553
 31
5
  0
LINE
  8
Z88NET
 10
35.3553
 20
35.3553
 30
5
 11
56.5685
 21
56.5685
 31
5
  0
LINE
  8
Z88NET
 10
56.5685
 20
56.5685
 30
5
 11
30.6147
 21
73.9104
 31
5
  0
LINE
  8
Z88NET
 10
30.6147
 20
73.9104
 30
5
 11
-1.4e-005
 21
80
 31
5
  0
LINE
  8
Z88NET
 10
-1.4e-005
 20
80
 30
5
 11
-9e-006
 21
50
 31
5
  0
LINE
  8
Z88NET
 10
-9e-006
 20
50
 30
5
 11
-3e-006
 21
20
 31
5
  0
LINE
  8
Z88NET
 10
-3e-006
 20
20
 30
5
 11
7.65367
 21
18.4776
 31
5
  0
LINE
  8
Z88NET
 10
7.65367
 20
18.4776
 30
5
 11
14.1421
 21
14.1421
 31
5
  0
LINE
  8
Z88NET
 10
14.1421
 20
14.1421
 30
0
 11
35.3553
 21
35.3553
 31
0
  0
LINE
  8
Z88NET
 10
35.3553
 20
35.3553
 30
0
 11
56.5685
 21
56.5685
 31
0
  0
LINE
  8
Z88NET
 10
56.5685
 20
56.5685
 30
0
 11
30.6147
 21
73.9104
 31
0
  0
LINE
  8
Z88NET
 10
30.6147
 20
73.9104
 30
0
 11
-1.4e-005
 21
80
 31
0
  0
LINE
  8
Z88NET
 10
-1.4e-005
 20
80
 30
0
 11
-9e-006
 21
50
 31
0
  0
LINE
  8
Z88NET
 10
-9e-006
 20
50
 30
0
 11
-3e-006
 21
20
 31
0
  0
LINE
  8
Z88NET
 10
-3e-006
 20
20
 30
0
 11
7.65367
 21
18.4776
 31
0
  0
LINE
  8
Z88NET
 10
7.65367
 20
18.4776
 30
0
 11
14.1421
 21
14.1421
 31
0
  0
LINE
  8
Z88NET
 10
14.1421
 20
14.1421
 30
5
 11
14.1421
 21
14.1421
 31
2.5
  0
LINE
  8
Z88NET
 10
14.1421
 20
14.1421
 30
2.5
 11
14.1421
 21
14.1421
 31
0
  0
LINE
  8
Z88NET
 10
56.5685
 20
56.5685
 30
5
 11
56.5685
 21
56.5685
 31
2.5
  0
LINE
  8
Z88NET
 10
56.5685
 20
56.5685
 30
2.5
 11
56.5685
 21
56.5685
 31
0
  0
LINE
  8
Z88NET
 10
-1.4e-005
 20
80
 30
5
 11
-1.4e-005
 21
80
 31
2.5
  0
LINE
  8
Z88NET
 10
-1.4e-005
 20
80
 30
2.5
 11
-1.4e-005
 21
80
 31
0
  0
LINE
  8
Z88NET
 10
-3e-006
 20
20
 30
5
 11
-3e-006
 21
20
 31
2.5
  0
LINE
  8
Z88NET
 10
-3e-006
 20
20
 30
2.5
 11
-3e-006
 21
20
 31
0
  0
ENDSEC
  0
EOF
