  0
SECTION
  2
HEADER
  9
$ACADVER
  1
AC1009
  9
$INSBASE
 10
0.0
 20
0.0
 30
0.0
  9
$EXTMIN
 10
-28.406467798743051
 20
4.5674732012293466
 30
-0.0015258207003583
  9
$EXTMAX
 10
207.71494496437219
 20
103.43611606072621
 30
0.0000000349246037
  9
$LIMMIN
 10
-28.398
 20
-15.218999999999999
  9
$LIMMAX
 10
249.096
 20
104.09699999999999
  9
$ORTHOMODE
 70
     0
  9
$REGENMODE
 70
     1
  9
$FILLMODE
 70
     1
  9
$QTEXTMODE
 70
     0
  9
$MIRRTEXT
 70
     0
  9
$DRAGMODE
 70
     2
  9
$LTSCALE
 40
1.0
  9
$OSMODE
 70
    39
  9
$ATTMODE
 70
     1
  9
$TEXTSIZE
 40
0.2
  9
$TRACEWID
 40
0.05
  9
$TEXTSTYLE
  7
STANDARD
  9
$CLAYER
  8
Z88NET
  9
$CELTYPE
  6
CONTINUOUS
  9
$CECOLOR
 62
   256
  9
$DIMSCALE
 40
1.0
  9
$DIMASZ
 40
0.18
  9
$DIMEXO
 40
0.0625
  9
$DIMDLI
 40
0.38
  9
$DIMRND
 40
0.0
  9
$DIMDLE
 40
0.0
  9
$DIMEXE
 40
0.18
  9
$DIMTP
 40
0.0
  9
$DIMTM
 40
0.0
  9
$DIMTXT
 40
0.18
  9
$DIMCEN
 40
0.09
  9
$DIMTSZ
 40
0.0
  9
$DIMTOL
 70
     0
  9
$DIMLIM
 70
     0
  9
$DIMTIH
 70
     1
  9
$DIMTOH
 70
     1
  9
$DIMSE1
 70
     0
  9
$DIMSE2
 70
     0
  9
$DIMTAD
 70
     0
  9
$DIMZIN
 70
     0
  9
$DIMBLK
  1

  9
$DIMASO
 70
     1
  9
$DIMSHO
 70
     1
  9
$DIMPOST
  1

  9
$DIMAPOST
  1

  9
$DIMALT
 70
     0
  9
$DIMALTD
 70
     2
  9
$DIMALTF
 40
25.399999999999999
  9
$DIMLFAC
 40
1.0
  9
$DIMTOFL
 70
     0
  9
$DIMTVP
 40
0.0
  9
$DIMTIX
 70
     0
  9
$DIMSOXD
 70
     0
  9
$DIMSAH
 70
     0
  9
$DIMBLK1
  1

  9
$DIMBLK2
  1

  9
$DIMSTYLE
  2
STANDARD
  9
$DIMCLRD
 70
     0
  9
$DIMCLRE
 70
     0
  9
$DIMCLRT
 70
     0
  9
$DIMTFAC
 40
1.0
  9
$DIMGAP
 40
0.09
  9
$LUNITS
 70
     2
  9
$LUPREC
 70
     4
  9
$SKETCHINC
 40
0.1
  9
$FILLETRAD
 40
0.0
  9
$AUNITS
 70
     0
  9
$AUPREC
 70
     0
  9
$MENU
  1
.
  9
$ELEVATION
 40
0.0
  9
$PELEVATION
 40
0.0
  9
$THICKNESS
 40
0.0
  9
$LIMCHECK
 70
     0
  9
$BLIPMODE
 70
     0
  9
$CHAMFERA
 40
0.0
  9
$CHAMFERB
 40
0.0
  9
$SKPOLY
 70
     0
  9
$TDCREATE
 40
2455783.3552202322
  9
$TDUPDATE
 40
2455783.3564749081
  9
$TDINDWG
 40
0.0012560417
  9
$TDUSRTIMER
 40
0.0012560417
  9
$USRTIMER
 70
     1
  9
$ANGBASE
 50
0.0
  9
$ANGDIR
 70
     0
  9
$PDMODE
 70
     3
  9
$PDSIZE
 40
-3.0
  9
$PLINEWID
 40
0.0
  9
$COORDS
 70
     1
  9
$SPLFRAME
 70
     0
  9
$SPLINETYPE
 70
     6
  9
$SPLINESEGS
 70
     8
  9
$ATTDIA
 70
     0
  9
$ATTREQ
 70
     1
  9
$HANDLING
 70
     1
  9
$HANDSEED
  5
15C
  9
$SURFTAB1
 70
     6
  9
$SURFTAB2
 70
     6
  9
$SURFTYPE
 70
     6
  9
$SURFU
 70
     6
  9
$SURFV
 70
     6
  9
$UCSNAME
  2

  9
$UCSORG
 10
0.0
 20
0.0
 30
0.0
  9
$UCSXDIR
 10
1.0
 20
0.0
 30
0.0
  9
$UCSYDIR
 10
0.0
 20
1.0
 30
0.0
  9
$PUCSNAME
  2

  9
$PUCSORG
 10
0.0
 20
0.0
 30
0.0
  9
$PUCSXDIR
 10
1.0
 20
0.0
 30
0.0
  9
$PUCSYDIR
 10
0.0
 20
1.0
 30
0.0
  9
$USERI1
 70
     0
  9
$USERI2
 70
     0
  9
$USERI3
 70
     0
  9
$USERI4
 70
     0
  9
$USERI5
 70
     0
  9
$USERR1
 40
0.0
  9
$USERR2
 40
0.0
  9
$USERR3
 40
0.0
  9
$USERR4
 40
0.0
  9
$USERR5
 40
0.0
  9
$WORLDVIEW
 70
     1
  9
$SHADEDGE
 70
     3
  9
$SHADEDIF
 70
    70
  9
$TILEMODE
 70
     1
  9
$MAXACTVP
 70
    64
  9
$PLIMCHECK
 70
     0
  9
$PEXTMIN
 10
1.0000000000000000E+020
 20
1.0000000000000000E+020
 30
1.0000000000000000E+020
  9
$PEXTMAX
 10
-1.0000000000000000E+020
 20
-1.0000000000000000E+020
 30
-1.0000000000000000E+020
  9
$PLIMMIN
 10
0.0
 20
0.0
  9
$PLIMMAX
 10
12.0
 20
9.0
  9
$UNITMODE
 70
     0
  9
$VISRETAIN
 70
     1
  9
$PLINEGEN
 70
     0
  9
$PSLTSCALE
 70
     1
  0
ENDSEC
  0
SECTION
  2
TABLES
  0
TABLE
  2
VPORT
 70
     1
  0
VPORT
  2
*ACTIVE
 70
     0
 10
0.0
 20
0.0
 11
1.0
 21
1.0
 12
110.3447661006285
 22
44.438999999999993
 13
0.0
 23
0.0
 14
1.0
 24
1.0
 15
0.0
 25
0.0
 16
0.0
 26
0.0
 36
1.0
 17
0.0
 27
0.0
 37
0.0
 40
163.58731621369881
 41
1.7045143638850879
 42
50.0
 43
0.0
 44
0.0
 50
0.0
 51
0.0
 71
     0
 72
   100
 73
     1
 74
     1
 75
     0
 76
     0
 77
     0
 78
     0
  0
ENDTAB
  0
TABLE
  2
LTYPE
 70
     1
  0
LTYPE
  2
CONTINUOUS
 70
     0
  3
Solid line
 72
    65
 73
     0
 40
0.0
  0
ENDTAB
  0
TABLE
  2
LAYER
 70
     7
  0
LAYER
  2
0
 70
     0
 62
    -7
  6
CONTINUOUS
  0
LAYER
  2
Z88NET
 70
     0
 62
     5
  6
CONTINUOUS
  0
LAYER
  2
Z88EIO
 70
     0
 62
     5
  6
CONTINUOUS
  0
LAYER
  2
Z88KNR
 70
     0
 62
     1
  6
CONTINUOUS
  0
LAYER
  2
Z88RBD
 70
     0
 62
     6
  6
CONTINUOUS
  0
LAYER
  2
Z88GEN
 70
     0
 62
     6
  6
CONTINUOUS
  0
LAYER
  2
Z88PKT
 70
     0
 62
     1
  6
CONTINUOUS
  0
ENDTAB
  0
TABLE
  2
STYLE
 70
     2
  0
STYLE
  2
STANDARD
 70
     0
 40
0.0
 41
1.0
 50
0.0
 71
     0
 42
0.2
  3
txt
  4

  0
STYLE
  2
ANNOTATIVE
 70
     0
 40
0.0
 41
1.0
 50
0.0
 71
     0
 42
0.2
  3
txt
  4

  0
ENDTAB
  0
TABLE
  2
VIEW
 70
     0
  0
ENDTAB
  0
TABLE
  2
UCS
 70
     0
  0
ENDTAB
  0
TABLE
  2
APPID
 70
     3
  0
APPID
  2
ACAD
 70
     0
  0
APPID
  2
ACADANNOTATIVE
 70
     0
  0
APPID
  2
ACAD_MLEADERVER
 70
     0
  0
ENDTAB
  0
TABLE
  2
DIMSTYLE
 70
     2
  0
DIMSTYLE
  2
STANDARD
 70
     0
  3

  4

  5

  6

  7

 40
1.0
 41
0.18
 42
0.0625
 43
0.38
 44
0.18
 45
0.0
 46
0.0
 47
0.0
 48
0.0
140
0.18
141
0.09
142
0.0
143
25.399999999999999
144
1.0
145
0.0
146
1.0
147
0.09
 71
     0
 72
     0
 73
     1
 74
     1
 75
     0
 76
     0
 77
     0
 78
     0
170
     0
171
     2
172
     0
173
     0
174
     0
175
     0
176
     0
177
     0
178
     0
  0
DIMSTYLE
  2
ANNOTATIVE
 70
     0
  3

  4

  5

  6

  7

 40
1.0
 41
0.18
 42
0.0625
 43
0.38
 44
0.18
 45
0.0
 46
0.0
 47
0.0
 48
0.0
140
0.18
141
0.09
142
0.0
143
25.399999999999999
144
1.0
145
0.0
146
1.0
147
0.09
 71
     0
 72
     0
 73
     1
 74
     1
 75
     0
 76
     0
 77
     0
 78
     0
170
     0
171
     2
172
     0
173
     0
174
     0
175
     0
176
     0
177
     0
178
     0
  0
ENDTAB
  0
ENDSEC
  0
SECTION
  2
BLOCKS
  0
BLOCK
  8
0
  2
$MODEL_SPACE
 70
     0
 10
0.0
 20
0.0
 30
0.0
  3
$MODEL_SPACE
  1

  0
ENDBLK
  5
6D
  8
0
  0
BLOCK
 67
     1
  8
0
  2
$PAPER_SPACE
 70
     0
 10
0.0
 20
0.0
 30
0.0
  3
$PAPER_SPACE
  1

  0
ENDBLK
  5
69
 67
     1
  8
0
  0
ENDSEC
  0
SECTION
  2
ENTITIES
  0
TEXT
  5
77
  8
Z88GEN
 10
-28.398
 20
102.113
 30
0.0
 40
1.3226999999999991
  1
Z88NI.TXT 2 38 7 76 0 0 0
  0
POINT
  5
79
  8
Z88PKT
 10
22.039999999999999
 20
32.174999999999997
 30
0.0
  0
TEXT
  5
7A
  8
Z88KNR
 10
22.039999999999999
 20
32.174999999999997
 30
0.0
 40
1.3226999999999991
  1
P 1
  0
POINT
  5
7B
  8
Z88PKT
 10
31.913
 20
28.797999999999998
 30
0.0
  0
TEXT
  5
7C
  8
Z88KNR
 10
31.913
 20
28.797999999999998
 30
0.0
 40
1.3226999999999991
  1
P 2
  0
POINT
  5
7D
  8
Z88PKT
 10
43.780999999999999
 20
24.826000000000001
 30
0.0
  0
TEXT
  5
7E
  8
Z88KNR
 10
43.780999999999999
 20
24.826000000000001
 30
0.0
 40
1.3226999999999991
  1
P 3
  0
POINT
  5
7F
  8
Z88PKT
 10
43.880000000000003
 20
32.373000000000012
 30
0.0
  0
TEXT
  5
80
  8
Z88KNR
 10
43.880000000000003
 20
32.373000000000012
 30
0.0
 40
1.3226999999999991
  1
P 4
  0
POINT
  5
81
  8
Z88PKT
 10
43.97999999999999
 20
39.423999999999999
 30
0.0
  0
TEXT
  5
82
  8
Z88KNR
 10
43.97999999999999
 20
39.423999999999999
 30
0.0
 40
1.3226999999999991
  1
P 5
  0
POINT
  5
83
  8
Z88PKT
 10
30.716000000000001
 20
39.52300000000001
 30
0.0
  0
TEXT
  5
84
  8
Z88KNR
 10
30.716000000000001
 20
39.52300000000001
 30
0.0
 40
1.3226999999999991
  1
P 6
  0
POINT
  5
85
  8
Z88PKT
 10
17.850999999999999
 20
39.52300000000001
 30
0.0
  0
TEXT
  5
86
  8
Z88KNR
 10
17.850999999999999
 20
39.52300000000001
 30
0.0
 40
1.3226999999999991
  1
P 7
  0
POINT
  5
87
  8
Z88PKT
 10
19.745999999999999
 20
36.146999999999998
 30
0.0
  0
TEXT
  5
88
  8
Z88KNR
 10
19.745999999999999
 20
36.146999999999998
 30
0.0
 40
1.3226999999999991
  1
P 8
  0
POINT
  5
89
  8
Z88PKT
 10
57.542999999999999
 20
28.20300000000001
 30
0.0
  0
TEXT
  5
8A
  8
Z88KNR
 10
57.542999999999999
 20
28.20300000000001
 30
0.0
 40
1.3226999999999991
  1
P 9
  0
POINT
  5
8B
  8
Z88PKT
 10
67.616
 20
34.756999999999998
 30
0.0
  0
TEXT
  5
8C
  8
Z88KNR
 10
67.616
 20
34.756999999999998
 30
0.0
 40
1.3226999999999991
  1
P 10
  0
POINT
  5
8D
  8
Z88PKT
 10
57.942
 20
41.211999999999989
 30
0.0
  0
TEXT
  5
8E
  8
Z88KNR
 10
57.942
 20
41.211999999999989
 30
0.0
 40
1.3226999999999991
  1
P 11
  0
POINT
  5
8F
  8
Z88PKT
 10
48.866999999999997
 20
46.970999999999997
 30
0.0
  0
TEXT
  5
90
  8
Z88KNR
 10
48.866999999999997
 20
46.970999999999997
 30
0.0
 40
1.3226999999999991
  1
P 12
  0
POINT
  5
91
  8
Z88PKT
 10
47.0
 20
42.5
 30
0.0
  0
TEXT
  5
92
  8
Z88KNR
 10
47.0
 20
42.5
 30
0.0
 40
1.3226999999999991
  1
P 13
  0
POINT
  5
93
  8
Z88PKT
 10
69.210999999999999
 20
49.453999999999994
 30
0.0
  0
TEXT
  5
94
  8
Z88KNR
 10
69.210999999999999
 20
49.453999999999994
 30
0.0
 40
1.3226999999999991
  1
P 14
  0
POINT
  5
95
  8
Z88PKT
 10
70.706999999999994
 20
63.951999999999991
 30
0.0
  0
TEXT
  5
96
  8
Z88KNR
 10
70.706999999999994
 20
63.951999999999991
 30
0.0
 40
1.3226999999999991
  1
P 15
  0
POINT
  5
97
  8
Z88PKT
 10
59.836999999999989
 20
62.463000000000001
 30
0.0
  0
TEXT
  5
98
  8
Z88KNR
 10
59.836999999999989
 20
62.463000000000001
 30
0.0
 40
1.3226999999999991
  1
P 16
  0
POINT
  5
99
  8
Z88PKT
 10
49.165999999999997
 20
61.171999999999997
 30
0.0
  0
TEXT
  5
9A
  8
Z88KNR
 10
49.165999999999997
 20
61.171999999999997
 30
0.0
 40
1.3226999999999991
  1
P 17
  0
POINT
  5
9B
  8
Z88PKT
 10
49.963999999999999
 20
54.021999999999998
 30
0.0
  0
TEXT
  5
9C
  8
Z88KNR
 10
49.963999999999999
 20
54.021999999999998
 30
0.0
 40
1.3226999999999991
  1
P 18
  0
POINT
  5
9D
  8
Z88PKT
 10
60.036000000000001
 20
80.237999999999985
 30
0.0
  0
TEXT
  5
9E
  8
Z88KNR
 10
60.036000000000001
 20
80.237999999999985
 30
0.0
 40
1.3226999999999991
  1
P 19
  0
POINT
  5
9F
  8
Z88PKT
 10
44.777999999999999
 20
84.210999999999999
 30
0.0
  0
TEXT
  5
A0
  8
Z88KNR
 10
44.777999999999999
 20
84.210999999999999
 30
0.0
 40
1.3226999999999991
  1
P 20
  0
POINT
  5
A1
  8
Z88PKT
 10
44.279000000000003
 20
76.364999999999995
 30
0.0
  0
TEXT
  5
A2
  8
Z88KNR
 10
44.279000000000003
 20
76.364999999999995
 30
0.0
 40
1.3226999999999991
  1
P 21
  0
POINT
  5
A3
  8
Z88PKT
 10
44.079999999999998
 20
68.620000000000005
 30
0.0
  0
TEXT
  5
A4
  8
Z88KNR
 10
44.079999999999998
 20
68.620000000000005
 30
0.0
 40
1.3226999999999991
  1
P 22
  0
POINT
  5
A5
  8
Z88PKT
 10
47.0
 20
66.0
 30
0.0
  0
TEXT
  5
A6
  8
Z88KNR
 10
47.0
 20
66.0
 30
0.0
 40
1.3226999999999991
  1
P 23
  0
POINT
  5
A7
  8
Z88PKT
 10
36.101999999999997
 20
81.132000000000005
 30
0.0
  0
TEXT
  5
A8
  8
Z88KNR
 10
36.101999999999997
 20
81.132000000000005
 30
0.0
 40
1.3226999999999991
  1
P 24
  0
POINT
  5
A9
  8
Z88PKT
 10
26.029
 20
78.054000000000002
 30
0.0
  0
TEXT
  5
AA
  8
Z88KNR
 10
26.029
 20
78.054000000000002
 30
0.0
 40
1.3226999999999991
  1
P 25
  0
POINT
  5
AB
  8
Z88PKT
 10
22.539000000000001
 20
73.486000000000004
 30
0.0
  0
TEXT
  5
AC
  8
Z88KNR
 10
22.539000000000001
 20
73.486000000000004
 30
0.0
 40
1.3226999999999991
  1
P 26
  0
POINT
  5
AD
  8
Z88PKT
 10
18.449999999999999
 20
68.620000000000005
 30
0.0
  0
TEXT
  5
AE
  8
Z88KNR
 10
18.449999999999999
 20
68.620000000000005
 30
0.0
 40
1.3226999999999991
  1
P 27
  0
POINT
  5
AF
  8
Z88PKT
 10
31.114999999999998
 20
68.421000000000006
 30
0.0
  0
TEXT
  5
B0
  8
Z88KNR
 10
31.114999999999998
 20
68.421000000000006
 30
0.0
 40
1.3226999999999991
  1
P 28
  0
POINT
  5
B1
  8
Z88PKT
 10
75.295000000000002
 20
35.551000000000002
 30
0.0
  0
TEXT
  5
B2
  8
Z88KNR
 10
75.295000000000002
 20
35.551000000000002
 30
0.0
 40
1.3226999999999991
  1
P 29
  0
POINT
  5
B3
  8
Z88PKT
 10
80.780000000000015
 20
34.161000000000001
 30
0.0
  0
TEXT
  5
B4
  8
Z88KNR
 10
80.780000000000015
 20
34.161000000000001
 30
0.0
 40
1.3226999999999991
  1
P 30
  0
POINT
  5
B5
  8
Z88PKT
 10
83.971000000000004
 20
45.283000000000001
 30
0.0
  0
TEXT
  5
B6
  8
Z88KNR
 10
83.971000000000004
 20
45.283000000000001
 30
0.0
 40
1.3226999999999991
  1
P 31
  0
POINT
  5
B7
  8
Z88PKT
 10
87.162000000000006
 20
57.000999999999998
 30
0.0
  0
TEXT
  5
B8
  8
Z88KNR
 10
87.162000000000006
 20
57.000999999999998
 30
0.0
 40
1.3226999999999991
  1
P 32
  0
POINT
  5
B9
  8
Z88PKT
 10
77.688000000000002
 20
59.681999999999988
 30
0.0
  0
TEXT
  5
BA
  8
Z88KNR
 10
77.688000000000002
 20
59.681999999999988
 30
0.0
 40
1.3226999999999991
  1
P 33
  0
POINT
  5
BB
  8
Z88PKT
 10
138.62200000000001
 20
19.463999999999999
 30
0.0
  0
TEXT
  5
BC
  8
Z88KNR
 10
138.62200000000001
 20
19.463999999999999
 30
0.0
 40
1.3226999999999991
  1
P 34
  0
POINT
  5
BD
  8
Z88PKT
 10
196.66399999999999
 20
4.6669999999999989
 30
0.0
  0
TEXT
  5
BE
  8
Z88KNR
 10
196.66399999999999
 20
4.6669999999999989
 30
0.0
 40
1.3226999999999991
  1
P 35
  0
POINT
  5
BF
  8
Z88PKT
 10
200.054
 20
16.783000000000001
 30
0.0
  0
TEXT
  5
C0
  8
Z88KNR
 10
200.054
 20
16.783000000000001
 30
0.0
 40
1.3226999999999991
  1
P 36
  0
POINT
  5
C1
  8
Z88PKT
 10
202.84700000000001
 20
27.507000000000001
 30
0.0
  0
TEXT
  5
C2
  8
Z88KNR
 10
202.84700000000001
 20
27.507000000000001
 30
0.0
 40
1.3226999999999991
  1
P 37
  0
POINT
  5
C3
  8
Z88PKT
 10
144.905
 20
42.402999999999999
 30
0.0
  0
TEXT
  5
C4
  8
Z88KNR
 10
144.905
 20
42.402999999999999
 30
0.0
 40
1.3226999999999991
  1
P 38
  0
TEXT
  5
C5
  8
Z88EIO
 10
33.009999999999998
 20
35.799500000000002
 30
0.0
 40
1.3226999999999991
  1
SE 1 7 7 3 E 3 E
  0
TEXT
  5
C6
  8
Z88EIO
 10
46.323999999999991
 20
35.898499999999999
 30
0.0
 40
1.3226999999999991
  1
SE 2 7 7 3 E 3 E
  0
TEXT
  5
C7
  8
Z88EIO
 10
58.391000000000012
 20
47.964500000000001
 30
0.0
 40
1.3226999999999991
  1
SE 3 7 7 3 E 3 E
  0
TEXT
  5
C8
  8
Z88EIO
 10
57.393500000000003
 20
66.286000000000001
 30
0.0
 40
1.3226999999999991
  1
SE 4 7 7 3 E 3 E
  0
TEXT
  5
C9
  8
Z88EIO
 10
31.614000000000001
 20
76.415499999999994
 30
0.0
 40
1.3226999999999991
  1
SE 5 7 7 3 E 3 E
  0
TEXT
  5
CA
  8
Z88EIO
 10
77.388999999999996
 20
45.878999999999998
 30
0.0
 40
1.3226999999999991
  1
SE 6 7 7 1 E 3 E
  0
TEXT
  5
CB
  8
Z88EIO
 10
141.81399999999999
 20
30.834
 30
0.0
 40
1.3226999999999991
  1
SE 7 7 7 6 E 3 E
  0
LINE
  5
CC
  8
Z88NET
 10
22.039999999999999
 20
32.174999999999997
 30
0.0
 11
31.913
 21
28.797999999999998
 31
0.0
  0
LINE
  5
CD
  8
Z88NET
 10
31.913
 20
28.797999999999998
 30
0.0
 11
43.780999999999999
 21
24.826000000000001
 31
0.0
  0
LINE
  5
CE
  8
Z88NET
 10
43.780999999999999
 20
24.826000000000001
 30
0.0
 11
43.880000000000003
 21
32.373000000000012
 31
0.0
  0
LINE
  5
CF
  8
Z88NET
 10
43.880000000000003
 20
32.373000000000012
 30
0.0
 11
43.97999999999999
 21
39.423999999999999
 31
0.0
  0
LINE
  5
D0
  8
Z88NET
 10
43.97999999999999
 20
39.423999999999999
 30
0.0
 11
30.716000000000001
 21
39.52300000000001
 31
0.0
  0
LINE
  5
D1
  8
Z88NET
 10
30.716000000000001
 20
39.52300000000001
 30
0.0
 11
17.850999999999999
 21
39.52300000000001
 31
0.0
  0
LINE
  5
D2
  8
Z88NET
 10
17.850999999999999
 20
39.52300000000001
 30
0.0
 11
19.745999999999999
 21
36.146999999999998
 31
0.0
  0
LINE
  5
D3
  8
Z88NET
 10
19.745999999999999
 20
36.146999999999998
 30
0.0
 11
22.039999999999999
 21
32.174999999999997
 31
0.0
  0
LINE
  5
D4
  8
Z88NET
 10
43.780999999999999
 20
24.826000000000001
 30
0.0
 11
57.542999999999999
 21
28.20300000000001
 31
0.0
  0
LINE
  5
D5
  8
Z88NET
 10
57.542999999999999
 20
28.20300000000001
 30
0.0
 11
67.616
 21
34.756999999999998
 31
0.0
  0
LINE
  5
D6
  8
Z88NET
 10
67.616
 20
34.756999999999998
 30
0.0
 11
57.942
 21
41.211999999999989
 31
0.0
  0
LINE
  5
D7
  8
Z88NET
 10
57.942
 20
41.211999999999989
 30
0.0
 11
48.866999999999997
 21
46.970999999999997
 31
0.0
  0
LINE
  5
D8
  8
Z88NET
 10
48.866999999999997
 20
46.970999999999997
 30
0.0
 11
47.0
 21
42.5
 31
0.0
  0
LINE
  5
D9
  8
Z88NET
 10
47.0
 20
42.5
 30
0.0
 11
43.97999999999999
 21
39.423999999999999
 31
0.0
  0
LINE
  5
DA
  8
Z88NET
 10
43.97999999999999
 20
39.423999999999999
 30
0.0
 11
43.880000000000003
 21
32.373000000000012
 31
0.0
  0
LINE
  5
DB
  8
Z88NET
 10
43.880000000000003
 20
32.373000000000012
 30
0.0
 11
43.780999999999999
 21
24.826000000000001
 31
0.0
  0
LINE
  5
DC
  8
Z88NET
 10
67.616
 20
34.756999999999998
 30
0.0
 11
69.210999999999999
 21
49.453999999999994
 31
0.0
  0
LINE
  5
DD
  8
Z88NET
 10
69.210999999999999
 20
49.453999999999994
 30
0.0
 11
70.706999999999994
 21
63.951999999999991
 31
0.0
  0
LINE
  5
DE
  8
Z88NET
 10
70.706999999999994
 20
63.951999999999991
 30
0.0
 11
59.836999999999989
 21
62.463000000000001
 31
0.0
  0
LINE
  5
DF
  8
Z88NET
 10
59.836999999999989
 20
62.463000000000001
 30
0.0
 11
49.165999999999997
 21
61.171999999999997
 31
0.0
  0
LINE
  5
E0
  8
Z88NET
 10
49.165999999999997
 20
61.171999999999997
 30
0.0
 11
49.963999999999999
 21
54.021999999999998
 31
0.0
  0
LINE
  5
E1
  8
Z88NET
 10
49.963999999999999
 20
54.021999999999998
 30
0.0
 11
48.866999999999997
 21
46.970999999999997
 31
0.0
  0
LINE
  5
E2
  8
Z88NET
 10
48.866999999999997
 20
46.970999999999997
 30
0.0
 11
57.942
 21
41.211999999999989
 31
0.0
  0
LINE
  5
E3
  8
Z88NET
 10
57.942
 20
41.211999999999989
 30
0.0
 11
67.616
 21
34.756999999999998
 31
0.0
  0
LINE
  5
E4
  8
Z88NET
 10
70.706999999999994
 20
63.951999999999991
 30
0.0
 11
60.036000000000001
 21
80.237999999999985
 31
0.0
  0
LINE
  5
E5
  8
Z88NET
 10
60.036000000000001
 20
80.237999999999985
 30
0.0
 11
44.777999999999999
 21
84.210999999999999
 31
0.0
  0
LINE
  5
E6
  8
Z88NET
 10
44.777999999999999
 20
84.210999999999999
 30
0.0
 11
44.279000000000003
 21
76.364999999999995
 31
0.0
  0
LINE
  5
E7
  8
Z88NET
 10
44.279000000000003
 20
76.364999999999995
 30
0.0
 11
44.079999999999998
 21
68.620000000000005
 31
0.0
  0
LINE
  5
E8
  8
Z88NET
 10
44.079999999999998
 20
68.620000000000005
 30
0.0
 11
47.0
 21
66.0
 31
0.0
  0
LINE
  5
E9
  8
Z88NET
 10
47.0
 20
66.0
 30
0.0
 11
49.165999999999997
 21
61.171999999999997
 31
0.0
  0
LINE
  5
EA
  8
Z88NET
 10
49.165999999999997
 20
61.171999999999997
 30
0.0
 11
59.836999999999989
 21
62.463000000000001
 31
0.0
  0
LINE
  5
EB
  8
Z88NET
 10
59.836999999999989
 20
62.463000000000001
 30
0.0
 11
70.706999999999994
 21
63.951999999999991
 31
0.0
  0
LINE
  5
EC
  8
Z88NET
 10
44.777999999999999
 20
84.210999999999999
 30
0.0
 11
36.101999999999997
 21
81.132000000000005
 31
0.0
  0
LINE
  5
ED
  8
Z88NET
 10
36.101999999999997
 20
81.132000000000005
 30
0.0
 11
26.029
 21
78.054000000000002
 31
0.0
  0
LINE
  5
EE
  8
Z88NET
 10
26.029
 20
78.054000000000002
 30
0.0
 11
22.539000000000001
 21
73.486000000000004
 31
0.0
  0
LINE
  5
EF
  8
Z88NET
 10
22.539000000000001
 20
73.486000000000004
 30
0.0
 11
18.449999999999999
 21
68.620000000000005
 31
0.0
  0
LINE
  5
F0
  8
Z88NET
 10
18.449999999999999
 20
68.620000000000005
 30
0.0
 11
31.114999999999998
 21
68.421000000000006
 31
0.0
  0
LINE
  5
F1
  8
Z88NET
 10
31.114999999999998
 20
68.421000000000006
 30
0.0
 11
44.079999999999998
 21
68.620000000000005
 31
0.0
  0
LINE
  5
F2
  8
Z88NET
 10
44.079999999999998
 20
68.620000000000005
 30
0.0
 11
44.279000000000003
 21
76.364999999999995
 31
0.0
  0
LINE
  5
F3
  8
Z88NET
 10
44.279000000000003
 20
76.364999999999995
 30
0.0
 11
44.777999999999999
 21
84.210999999999999
 31
0.0
  0
LINE
  5
F4
  8
Z88NET
 10
67.616
 20
34.756999999999998
 30
0.0
 11
75.295000000000002
 21
35.551000000000002
 31
0.0
  0
LINE
  5
F5
  8
Z88NET
 10
75.295000000000002
 20
35.551000000000002
 30
0.0
 11
80.780000000000015
 21
34.161000000000001
 31
0.0
  0
LINE
  5
F6
  8
Z88NET
 10
80.780000000000015
 20
34.161000000000001
 30
0.0
 11
83.971000000000004
 21
45.283000000000001
 31
0.0
  0
LINE
  5
F7
  8
Z88NET
 10
83.971000000000004
 20
45.283000000000001
 30
0.0
 11
87.162000000000006
 21
57.000999999999998
 31
0.0
  0
LINE
  5
F8
  8
Z88NET
 10
87.162000000000006
 20
57.000999999999998
 30
0.0
 11
77.688000000000002
 21
59.681999999999988
 31
0.0
  0
LINE
  5
F9
  8
Z88NET
 10
77.688000000000002
 20
59.681999999999988
 30
0.0
 11
70.706999999999994
 21
63.951999999999991
 31
0.0
  0
LINE
  5
FA
  8
Z88NET
 10
70.706999999999994
 20
63.951999999999991
 30
0.0
 11
69.210999999999999
 21
49.453999999999994
 31
0.0
  0
LINE
  5
FB
  8
Z88NET
 10
69.210999999999999
 20
49.453999999999994
 30
0.0
 11
67.616
 21
34.756999999999998
 31
0.0
  0
LINE
  5
FC
  8
Z88NET
 10
80.780000000000015
 20
34.161000000000001
 30
0.0
 11
138.62200000000001
 21
19.463999999999999
 31
0.0
  0
LINE
  5
FD
  8
Z88NET
 10
138.62200000000001
 20
19.463999999999999
 30
0.0
 11
196.66399999999999
 21
4.6669999999999989
 31
0.0
  0
LINE
  5
FE
  8
Z88NET
 10
196.66399999999999
 20
4.6669999999999989
 30
0.0
 11
200.054
 21
16.783000000000001
 31
0.0
  0
LINE
  5
FF
  8
Z88NET
 10
200.054
 20
16.783000000000001
 30
0.0
 11
202.84700000000001
 21
27.507000000000001
 31
0.0
  0
LINE
  5
100
  8
Z88NET
 10
202.84700000000001
 20
27.507000000000001
 30
0.0
 11
144.905
 21
42.402999999999999
 31
0.0
  0
LINE
  5
101
  8
Z88NET
 10
144.905
 20
42.402999999999999
 30
0.0
 11
87.162000000000006
 21
57.000999999999998
 31
0.0
  0
LINE
  5
102
  8
Z88NET
 10
87.162000000000006
 20
57.000999999999998
 30
0.0
 11
83.971000000000004
 21
45.283000000000001
 31
0.0
  0
LINE
  5
103
  8
Z88NET
 10
83.971000000000004
 20
45.283000000000001
 30
0.0
 11
80.780000000000015
 21
34.161000000000001
 31
0.0
  0
ENDSEC
  0
EOF
