  0
SECTION
  2
HEADER
  9
$ACADVER
  1
AC1009
  9
$INSBASE
 10
0.0
 20
0.0
 30
0.0
  9
$EXTMIN
 10
-20.003661829982491
 20
-0.1000973536866923
 30
-0.0015258207003583
  9
$EXTMAX
 10
82.141723891419474
 20
99.600830357057063
 30
0.0000000349246037
  9
$LIMMIN
 10
-20.0
 20
-20.0
  9
$LIMMAX
 10
100.0
 20
100.0
  9
$ORTHOMODE
 70
     0
  9
$REGENMODE
 70
     1
  9
$FILLMODE
 70
     1
  9
$QTEXTMODE
 70
     0
  9
$MIRRTEXT
 70
     0
  9
$DRAGMODE
 70
     2
  9
$LTSCALE
 40
1.0
  9
$OSMODE
 70
    37
  9
$ATTMODE
 70
     1
  9
$TEXTSIZE
 40
0.2
  9
$TRACEWID
 40
0.05
  9
$TEXTSTYLE
  7
STANDARD
  9
$CLAYER
  8
Z88NET
  9
$CELTYPE
  6
CONTINUOUS
  9
$CECOLOR
 62
   256
  9
$DIMSCALE
 40
1.0
  9
$DIMASZ
 40
0.18
  9
$DIMEXO
 40
0.0625
  9
$DIMDLI
 40
0.38
  9
$DIMRND
 40
0.0
  9
$DIMDLE
 40
0.0
  9
$DIMEXE
 40
0.18
  9
$DIMTP
 40
0.0
  9
$DIMTM
 40
0.0
  9
$DIMTXT
 40
0.18
  9
$DIMCEN
 40
0.09
  9
$DIMTSZ
 40
0.0
  9
$DIMTOL
 70
     0
  9
$DIMLIM
 70
     0
  9
$DIMTIH
 70
     1
  9
$DIMTOH
 70
     1
  9
$DIMSE1
 70
     0
  9
$DIMSE2
 70
     0
  9
$DIMTAD
 70
     0
  9
$DIMZIN
 70
     0
  9
$DIMBLK
  1

  9
$DIMASO
 70
     1
  9
$DIMSHO
 70
     1
  9
$DIMPOST
  1

  9
$DIMAPOST
  1

  9
$DIMALT
 70
     0
  9
$DIMALTD
 70
     2
  9
$DIMALTF
 40
25.399999999999999
  9
$DIMLFAC
 40
1.0
  9
$DIMTOFL
 70
     0
  9
$DIMTVP
 40
0.0
  9
$DIMTIX
 70
     0
  9
$DIMSOXD
 70
     0
  9
$DIMSAH
 70
     0
  9
$DIMBLK1
  1

  9
$DIMBLK2
  1

  9
$DIMSTYLE
  2
STANDARD
  9
$DIMCLRD
 70
     0
  9
$DIMCLRE
 70
     0
  9
$DIMCLRT
 70
     0
  9
$DIMTFAC
 40
1.0
  9
$DIMGAP
 40
0.09
  9
$LUNITS
 70
     2
  9
$LUPREC
 70
     4
  9
$SKETCHINC
 40
0.1
  9
$FILLETRAD
 40
0.0
  9
$AUNITS
 70
     0
  9
$AUPREC
 70
     0
  9
$MENU
  1
.
  9
$ELEVATION
 40
0.0
  9
$PELEVATION
 40
0.0
  9
$THICKNESS
 40
0.0
  9
$LIMCHECK
 70
     0
  9
$BLIPMODE
 70
     0
  9
$CHAMFERA
 40
0.0
  9
$CHAMFERB
 40
0.0
  9
$SKPOLY
 70
     0
  9
$TDCREATE
 40
2455786.4604013432
  9
$TDUPDATE
 40
2455786.4607847221
  9
$TDINDWG
 40
0.0003836921
  9
$TDUSRTIMER
 40
0.0003836921
  9
$USRTIMER
 70
     1
  9
$ANGBASE
 50
0.0
  9
$ANGDIR
 70
     0
  9
$PDMODE
 70
     3
  9
$PDSIZE
 40
-3.0
  9
$PLINEWID
 40
0.0
  9
$COORDS
 70
     1
  9
$SPLFRAME
 70
     0
  9
$SPLINETYPE
 70
     6
  9
$SPLINESEGS
 70
     8
  9
$ATTDIA
 70
     0
  9
$ATTREQ
 70
     1
  9
$HANDLING
 70
     1
  9
$HANDSEED
  5
17D
  9
$SURFTAB1
 70
     6
  9
$SURFTAB2
 70
     6
  9
$SURFTYPE
 70
     6
  9
$SURFU
 70
     6
  9
$SURFV
 70
     6
  9
$UCSNAME
  2

  9
$UCSORG
 10
0.0
 20
0.0
 30
0.0
  9
$UCSXDIR
 10
1.0
 20
0.0
 30
0.0
  9
$UCSYDIR
 10
0.0
 20
1.0
 30
0.0
  9
$PUCSNAME
  2

  9
$PUCSORG
 10
0.0
 20
0.0
 30
0.0
  9
$PUCSXDIR
 10
1.0
 20
0.0
 30
0.0
  9
$PUCSYDIR
 10
0.0
 20
1.0
 30
0.0
  9
$USERI1
 70
     0
  9
$USERI2
 70
     0
  9
$USERI3
 70
     0
  9
$USERI4
 70
     0
  9
$USERI5
 70
     0
  9
$USERR1
 40
0.0
  9
$USERR2
 40
0.0
  9
$USERR3
 40
0.0
  9
$USERR4
 40
0.0
  9
$USERR5
 40
0.0
  9
$WORLDVIEW
 70
     1
  9
$SHADEDGE
 70
     3
  9
$SHADEDIF
 70
    70
  9
$TILEMODE
 70
     1
  9
$MAXACTVP
 70
    64
  9
$PLIMCHECK
 70
     0
  9
$PEXTMIN
 10
1.0000000000000000E+020
 20
1.0000000000000000E+020
 30
1.0000000000000000E+020
  9
$PEXTMAX
 10
-1.0000000000000000E+020
 20
-1.0000000000000000E+020
 30
-1.0000000000000000E+020
  9
$PLIMMIN
 10
0.0
 20
0.0
  9
$PLIMMAX
 10
12.0
 20
9.0
  9
$UNITMODE
 70
     0
  9
$VISRETAIN
 70
     1
  9
$PLINEGEN
 70
     0
  9
$PSLTSCALE
 70
     1
  0
ENDSEC
  0
SECTION
  2
TABLES
  0
TABLE
  2
VPORT
 70
     1
  0
VPORT
  2
*ACTIVE
 70
     0
 10
0.0
 20
0.0
 11
1.0
 21
1.0
 12
39.998169085008747
 22
40.0
 13
0.0
 23
0.0
 14
1.0
 24
1.0
 15
0.0
 25
0.0
 16
0.0
 26
0.0
 36
1.0
 17
0.0
 27
0.0
 37
0.0
 40
120.984952120383
 41
1.7301369863013689
 42
50.0
 43
0.0
 44
0.0
 50
0.0
 51
0.0
 71
     0
 72
   100
 73
     1
 74
     1
 75
     0
 76
     0
 77
     0
 78
     0
  0
ENDTAB
  0
TABLE
  2
LTYPE
 70
     1
  0
LTYPE
  2
CONTINUOUS
 70
     0
  3
Solid line
 72
    65
 73
     0
 40
0.0
  0
ENDTAB
  0
TABLE
  2
LAYER
 70
     8
  0
LAYER
  2
0
 70
     0
 62
    -7
  6
CONTINUOUS
  0
LAYER
  2
Z88NET
 70
     0
 62
     5
  6
CONTINUOUS
  0
LAYER
  2
Z88EIO
 70
     0
 62
     5
  6
CONTINUOUS
  0
LAYER
  2
Z88KNR
 70
     0
 62
     1
  6
CONTINUOUS
  0
LAYER
  2
Z88RBD
 70
     0
 62
     6
  6
CONTINUOUS
  0
LAYER
  2
Z88FLA
 70
     0
 62
     6
  6
CONTINUOUS
  0
LAYER
  2
Z88GEN
 70
     0
 62
     6
  6
CONTINUOUS
  0
LAYER
  2
Z88PKT
 70
     0
 62
     1
  6
CONTINUOUS
  0
ENDTAB
  0
TABLE
  2
STYLE
 70
     2
  0
STYLE
  2
STANDARD
 70
     0
 40
0.0
 41
1.0
 50
0.0
 71
     0
 42
0.2
  3
txt
  4

  0
STYLE
  2
ANNOTATIVE
 70
     0
 40
0.0
 41
1.0
 50
0.0
 71
     0
 42
0.2
  3
txt
  4

  0
ENDTAB
  0
TABLE
  2
VIEW
 70
     0
  0
ENDTAB
  0
TABLE
  2
UCS
 70
     0
  0
ENDTAB
  0
TABLE
  2
APPID
 70
     3
  0
APPID
  2
ACAD
 70
     0
  0
APPID
  2
ACADANNOTATIVE
 70
     0
  0
APPID
  2
ACAD_MLEADERVER
 70
     0
  0
ENDTAB
  0
TABLE
  2
DIMSTYLE
 70
     2
  0
DIMSTYLE
  2
STANDARD
 70
     0
  3

  4

  5

  6

  7

 40
1.0
 41
0.18
 42
0.0625
 43
0.38
 44
0.18
 45
0.0
 46
0.0
 47
0.0
 48
0.0
140
0.18
141
0.09
142
0.0
143
25.399999999999999
144
1.0
145
0.0
146
1.0
147
0.09
 71
     0
 72
     0
 73
     1
 74
     1
 75
     0
 76
     0
 77
     0
 78
     0
170
     0
171
     2
172
     0
173
     0
174
     0
175
     0
176
     0
177
     0
178
     0
  0
DIMSTYLE
  2
ANNOTATIVE
 70
     0
  3

  4

  5

  6

  7

 40
1.0
 41
0.18
 42
0.0625
 43
0.38
 44
0.18
 45
0.0
 46
0.0
 47
0.0
 48
0.0
140
0.18
141
0.09
142
0.0
143
25.399999999999999
144
1.0
145
0.0
146
1.0
147
0.09
 71
     0
 72
     0
 73
     1
 74
     1
 75
     0
 76
     0
 77
     0
 78
     0
170
     0
171
     2
172
     0
173
     0
174
     0
175
     0
176
     0
177
     0
178
     0
  0
ENDTAB
  0
ENDSEC
  0
SECTION
  2
BLOCKS
  0
BLOCK
  8
0
  2
$MODEL_SPACE
 70
     0
 10
0.0
 20
0.0
 30
0.0
  3
$MODEL_SPACE
  1

  0
ENDBLK
  5
6D
  8
0
  0
BLOCK
 67
     1
  8
0
  2
$PAPER_SPACE
 70
     0
 10
0.0
 20
0.0
 30
0.0
  3
$PAPER_SPACE
  1

  0
ENDBLK
  5
69
 67
     1
  8
0
  0
ENDSEC
  0
SECTION
  2
ENTITIES
  0
TEXT
  5
78
  8
Z88GEN
 10
-20.0
 20
98.799999999999997
 30
0.0
 40
0.8
  1
Z88I1.TXT 2 37 8 74 0
  0
TEXT
  5
79
  8
Z88RBD
 10
-20.0
 20
96.400000000000006
 30
0.0
 40
0.8
  1
Z88I2.TXT 10
  0
TEXT
  5
7A
  8
Z88RBD
 10
-20.0
 20
95.200000000000017
 30
0.0
 40
0.8
  1
RBD 1 1 2 2 0
  0
TEXT
  5
7B
  8
Z88RBD
 10
-20.0
 20
94.0
 30
0.0
 40
0.8
  1
RBD 2 2 2 2 0
  0
TEXT
  5
7C
  8
Z88RBD
 10
-20.0
 20
92.799999999999983
 30
0.0
 40
0.8
  1
RBD 3 3 2 2 0
  0
TEXT
  5
7D
  8
Z88RBD
 10
-20.0
 20
91.599999999999994
 30
0.0
 40
0.8
  1
RBD 4 4 2 2 0
  0
TEXT
  5
7E
  8
Z88RBD
 10
-20.0
 20
90.400000000000006
 30
0.0
 40
0.8
  1
RBD 5 5 2 2 0
  0
TEXT
  5
7F
  8
Z88RBD
 10
-20.0
 20
89.199999999999989
 30
0.0
 40
0.8
  1
RBD 6 33 1 2 0
  0
TEXT
  5
80
  8
Z88RBD
 10
-20.0
 20
88.0
 30
0.0
 40
0.8
  1
RBD 7 34 1 2 0
  0
TEXT
  5
81
  8
Z88RBD
 10
-20.0
 20
86.799999999999983
 30
0.0
 40
0.8
  1
RBD 8 35 1 2 0
  0
TEXT
  5
82
  8
Z88RBD
 10
-20.0
 20
85.599999999999994
 30
0.0
 40
0.8
  1
RBD 9 36 1 2 0
  0
TEXT
  5
83
  8
Z88RBD
 10
-20.0
 20
84.400000000000006
 30
0.0
 40
0.8
  1
RBD 10 37 1 2 0
  0
TEXT
  5
84
  8
Z88FLA
 10
-20.0
 20
80.799999999999997
 30
0.0
 40
0.8
  1
Z88I5.TXT 4
  0
TEXT
  5
85
  8
Z88FLA
 10
-20.0
 20
79.599999999999994
 30
0.0
 40
0.8
  1
FLA 1 1 4000 0 9 1 6
  0
TEXT
  5
86
  8
Z88FLA
 10
-20.0
 20
78.400000000000006
 30
0.0
 40
0.8
  1
FLA 2 3 4000 0 17 9 14
  0
TEXT
  5
87
  8
Z88FLA
 10
-20.0
 20
77.200000000000003
 30
0.0
 40
0.8
  1
FLA 3 5 4000 0 25 17 22
  0
TEXT
  5
88
  8
Z88FLA
 10
-20.0
 20
76.0
 30
0.0
 40
0.8
  1
FLA 4 7 4000 0 33 25 30
  0
POINT
  5
89
  8
Z88PKT
 10
40.0
 20
0.0
 30
0.0
  0
TEXT
  5
8A
  8
Z88KNR
 10
40.0
 20
0.0
 30
0.0
 40
0.8
  1
P 1
  0
POINT
  5
8B
  8
Z88PKT
 10
48.0
 20
0.0
 30
0.0
  0
TEXT
  5
8C
  8
Z88KNR
 10
48.0
 20
0.0
 30
0.0
 40
0.8
  1
P 2
  0
POINT
  5
8D
  8
Z88PKT
 10
56.0
 20
0.0
 30
0.0
  0
TEXT
  5
8E
  8
Z88KNR
 10
56.0
 20
0.0
 30
0.0
 40
0.8
  1
P 3
  0
POINT
  5
8F
  8
Z88PKT
 10
68.0
 20
0.0
 30
0.0
  0
TEXT
  5
90
  8
Z88KNR
 10
68.0
 20
0.0
 30
0.0
 40
0.8
  1
P 4
  0
POINT
  5
91
  8
Z88PKT
 10
80.0
 20
0.0
 30
0.0
  0
TEXT
  5
92
  8
Z88KNR
 10
80.0
 20
0.0
 30
0.0
 40
0.8
  1
P 5
  0
POINT
  5
93
  8
Z88PKT
 10
39.231400000000001
 20
7.8036099999999999
 30
0.0
  0
TEXT
  5
94
  8
Z88KNR
 10
39.231400000000001
 20
7.8036099999999999
 30
0.0
 40
0.8
  1
P 6
  0
POINT
  5
95
  8
Z88PKT
 10
54.923999999999992
 20
10.9251
 30
0.0
  0
TEXT
  5
96
  8
Z88KNR
 10
54.923999999999992
 20
10.9251
 30
0.0
 40
0.8
  1
P 7
  0
POINT
  5
97
  8
Z88PKT
 10
78.462800000000001
 20
15.607200000000001
 30
0.0
  0
TEXT
  5
98
  8
Z88KNR
 10
78.462800000000001
 20
15.607200000000001
 30
0.0
 40
0.8
  1
P 8
  0
POINT
  5
99
  8
Z88PKT
 10
36.955199999999998
 20
15.3073
 30
0.0
  0
TEXT
  5
9A
  8
Z88KNR
 10
36.955199999999998
 20
15.3073
 30
0.0
 40
0.8
  1
P 9
  0
POINT
  5
9B
  8
Z88PKT
 10
44.346200000000003
 20
18.3688
 30
0.0
  0
TEXT
  5
9C
  8
Z88KNR
 10
44.346200000000003
 20
18.3688
 30
0.0
 40
0.8
  1
P 10
  0
POINT
  5
9D
  8
Z88PKT
 10
51.737299999999991
 20
21.430299999999999
 30
0.0
  0
TEXT
  5
9E
  8
Z88KNR
 10
51.737299999999991
 20
21.430299999999999
 30
0.0
 40
0.8
  1
P 11
  0
POINT
  5
9F
  8
Z88PKT
 10
62.823799999999991
 20
26.022500000000001
 30
0.0
  0
TEXT
  5
A0
  8
Z88KNR
 10
62.823799999999991
 20
26.022500000000001
 30
0.0
 40
0.8
  1
P 12
  0
POINT
  5
A1
  8
Z88PKT
 10
73.910399999999996
 20
30.614699999999999
 30
0.0
  0
TEXT
  5
A2
  8
Z88KNR
 10
73.910399999999996
 20
30.614699999999999
 30
0.0
 40
0.8
  1
P 13
  0
POINT
  5
A3
  8
Z88PKT
 10
33.258800000000001
 20
22.222799999999999
 30
0.0
  0
TEXT
  5
A4
  8
Z88KNR
 10
33.258800000000001
 20
22.222799999999999
 30
0.0
 40
0.8
  1
P 14
  0
POINT
  5
A5
  8
Z88PKT
 10
46.562299999999993
 20
31.111899999999999
 30
0.0
  0
TEXT
  5
A6
  8
Z88KNR
 10
46.562299999999993
 20
31.111899999999999
 30
0.0
 40
0.8
  1
P 15
  0
POINT
  5
A7
  8
Z88PKT
 10
66.517600000000002
 20
44.445599999999999
 30
0.0
  0
TEXT
  5
A8
  8
Z88KNR
 10
66.517600000000002
 20
44.445599999999999
 30
0.0
 40
0.8
  1
P 16
  0
POINT
  5
A9
  8
Z88PKT
 10
28.284300000000002
 20
28.284300000000002
 30
0.0
  0
TEXT
  5
AA
  8
Z88KNR
 10
28.284300000000002
 20
28.284300000000002
 30
0.0
 40
0.8
  1
P 17
  0
POINT
  5
AB
  8
Z88PKT
 10
33.941099999999999
 20
33.941099999999999
 30
0.0
  0
TEXT
  5
AC
  8
Z88KNR
 10
33.941099999999999
 20
33.941099999999999
 30
0.0
 40
0.8
  1
P 18
  0
POINT
  5
AD
  8
Z88PKT
 10
39.597999999999999
 20
39.597999999999999
 30
0.0
  0
TEXT
  5
AE
  8
Z88KNR
 10
39.597999999999999
 20
39.597999999999999
 30
0.0
 40
0.8
  1
P 19
  0
POINT
  5
AF
  8
Z88PKT
 10
48.083300000000001
 20
48.083300000000001
 30
0.0
  0
TEXT
  5
B0
  8
Z88KNR
 10
48.083300000000001
 20
48.083300000000001
 30
0.0
 40
0.8
  1
P 20
  0
POINT
  5
B1
  8
Z88PKT
 10
56.5685
 20
56.5685
 30
0.0
  0
TEXT
  5
B2
  8
Z88KNR
 10
56.5685
 20
56.5685
 30
0.0
 40
0.8
  1
P 21
  0
POINT
  5
B3
  8
Z88PKT
 10
22.222799999999999
 20
33.258800000000001
 30
0.0
  0
TEXT
  5
B4
  8
Z88KNR
 10
22.222799999999999
 20
33.258800000000001
 30
0.0
 40
0.8
  1
P 22
  0
POINT
  5
B5
  8
Z88PKT
 10
31.111899999999999
 20
46.562299999999993
 30
0.0
  0
TEXT
  5
B6
  8
Z88KNR
 10
31.111899999999999
 20
46.562299999999993
 30
0.0
 40
0.8
  1
P 23
  0
POINT
  5
B7
  8
Z88PKT
 10
44.445599999999999
 20
66.517600000000002
 30
0.0
  0
TEXT
  5
B8
  8
Z88KNR
 10
44.445599999999999
 20
66.517600000000002
 30
0.0
 40
0.8
  1
P 24
  0
POINT
  5
B9
  8
Z88PKT
 10
15.3073
 20
36.955199999999998
 30
0.0
  0
TEXT
  5
BA
  8
Z88KNR
 10
15.3073
 20
36.955199999999998
 30
0.0
 40
0.8
  1
P 25
  0
POINT
  5
BB
  8
Z88PKT
 10
18.3688
 20
44.346200000000003
 30
0.0
  0
TEXT
  5
BC
  8
Z88KNR
 10
18.3688
 20
44.346200000000003
 30
0.0
 40
0.8
  1
P 26
  0
POINT
  5
BD
  8
Z88PKT
 10
21.430299999999999
 20
51.737299999999991
 30
0.0
  0
TEXT
  5
BE
  8
Z88KNR
 10
21.430299999999999
 20
51.737299999999991
 30
0.0
 40
0.8
  1
P 27
  0
POINT
  5
BF
  8
Z88PKT
 10
26.022500000000001
 20
62.823799999999991
 30
0.0
  0
TEXT
  5
C0
  8
Z88KNR
 10
26.022500000000001
 20
62.823799999999991
 30
0.0
 40
0.8
  1
P 28
  0
POINT
  5
C1
  8
Z88PKT
 10
30.614699999999999
 20
73.910399999999996
 30
0.0
  0
TEXT
  5
C2
  8
Z88KNR
 10
30.614699999999999
 20
73.910399999999996
 30
0.0
 40
0.8
  1
P 29
  0
POINT
  5
C3
  8
Z88PKT
 10
7.8036099999999999
 20
39.231400000000001
 30
0.0
  0
TEXT
  5
C4
  8
Z88KNR
 10
7.8036099999999999
 20
39.231400000000001
 30
0.0
 40
0.8
  1
P 30
  0
POINT
  5
C5
  8
Z88PKT
 10
10.925000000000001
 20
54.923999999999992
 30
0.0
  0
TEXT
  5
C6
  8
Z88KNR
 10
10.925000000000001
 20
54.923999999999992
 30
0.0
 40
0.8
  1
P 31
  0
POINT
  5
C7
  8
Z88PKT
 10
15.607200000000001
 20
78.462800000000001
 30
0.0
  0
TEXT
  5
C8
  8
Z88KNR
 10
15.607200000000001
 20
78.462800000000001
 30
0.0
 40
0.8
  1
P 32
  0
POINT
  5
C9
  8
Z88PKT
 10
-0.0000069282
 20
40.0
 30
0.0
  0
TEXT
  5
CA
  8
Z88KNR
 10
-0.0000069282
 20
40.0
 30
0.0
 40
0.8
  1
P 33
  0
POINT
  5
CB
  8
Z88PKT
 10
-0.00000831384
 20
48.0
 30
0.0
  0
TEXT
  5
CC
  8
Z88KNR
 10
-0.00000831384
 20
48.0
 30
0.0
 40
0.8
  1
P 34
  0
POINT
  5
CD
  8
Z88PKT
 10
-0.00000969949
 20
56.0
 30
0.0
  0
TEXT
  5
CE
  8
Z88KNR
 10
-0.00000969949
 20
56.0
 30
0.0
 40
0.8
  1
P 35
  0
POINT
  5
CF
  8
Z88PKT
 10
-0.0000117779
 20
68.0
 30
0.0
  0
TEXT
  5
D0
  8
Z88KNR
 10
-0.0000117779
 20
68.0
 30
0.0
 40
0.8
  1
P 36
  0
POINT
  5
D1
  8
Z88PKT
 10
-0.0000138564
 20
80.0
 30
0.0
  0
TEXT
  5
D2
  8
Z88KNR
 10
-0.0000138564
 20
80.0
 30
0.0
 40
0.8
  1
P 37
  0
TEXT
  5
D3
  8
Z88EIO
 10
45.868699999999997
 20
10.715199999999999
 30
0.0
 40
0.8
  1
FE 1 7
  0
TEXT
  5
D4
  8
Z88EIO
 10
64.955200000000005
 20
15.307399999999999
 30
0.0
 40
0.8
  1
FE 2 7
  0
TEXT
  5
D5
  8
Z88EIO
 10
38.276600000000002
 20
27.4526
 30
0.0
 40
0.8
  1
FE 3 7
  0
TEXT
  5
D6
  8
Z88EIO
 10
54.152900000000002
 20
38.999400000000001
 30
0.0
 40
0.8
  1
FE 4 7
  0
TEXT
  5
D7
  8
Z88EIO
 10
24.857299999999999
 20
40.010800000000003
 30
0.0
 40
0.8
  1
FE 5 7
  0
TEXT
  5
D8
  8
Z88EIO
 10
35.106299999999997
 20
56.75419999999999
 30
0.0
 40
0.8
  1
FE 6 7
  0
TEXT
  5
D9
  8
Z88EIO
 10
7.653649999999999
 20
46.477600000000002
 30
0.0
 40
0.8
  1
FE 7 7
  0
TEXT
  5
DA
  8
Z88EIO
 10
10.7151
 20
65.868700000000004
 30
0.0
 40
0.8
  1
FE 8 7
  0
LINE
  5
DB
  8
Z88NET
 10
40.0
 20
0.0
 30
0.0
 11
48.0
 21
0.0
 31
0.0
  0
LINE
  5
DC
  8
Z88NET
 10
48.0
 20
0.0
 30
0.0
 11
56.0
 21
0.0
 31
0.0
  0
LINE
  5
DD
  8
Z88NET
 10
56.0
 20
0.0
 30
0.0
 11
54.923999999999992
 21
10.9251
 31
0.0
  0
LINE
  5
DE
  8
Z88NET
 10
54.923999999999992
 20
10.9251
 30
0.0
 11
51.737299999999991
 21
21.430299999999999
 31
0.0
  0
LINE
  5
DF
  8
Z88NET
 10
51.737299999999991
 20
21.430299999999999
 30
0.0
 11
44.346200000000003
 21
18.3688
 31
0.0
  0
LINE
  5
E0
  8
Z88NET
 10
44.346200000000003
 20
18.3688
 30
0.0
 11
36.955199999999998
 21
15.3073
 31
0.0
  0
LINE
  5
E1
  8
Z88NET
 10
36.955199999999998
 20
15.3073
 30
0.0
 11
39.231400000000001
 21
7.8036099999999999
 31
0.0
  0
LINE
  5
E2
  8
Z88NET
 10
39.231400000000001
 20
7.8036099999999999
 30
0.0
 11
40.0
 21
0.0
 31
0.0
  0
LINE
  5
E3
  8
Z88NET
 10
56.0
 20
0.0
 30
0.0
 11
68.0
 21
0.0
 31
0.0
  0
LINE
  5
E4
  8
Z88NET
 10
68.0
 20
0.0
 30
0.0
 11
80.0
 21
0.0
 31
0.0
  0
LINE
  5
E5
  8
Z88NET
 10
80.0
 20
0.0
 30
0.0
 11
78.462800000000001
 21
15.607200000000001
 31
0.0
  0
LINE
  5
E6
  8
Z88NET
 10
78.462800000000001
 20
15.607200000000001
 30
0.0
 11
73.910399999999996
 21
30.614699999999999
 31
0.0
  0
LINE
  5
E7
  8
Z88NET
 10
73.910399999999996
 20
30.614699999999999
 30
0.0
 11
62.823799999999991
 21
26.022500000000001
 31
0.0
  0
LINE
  5
E8
  8
Z88NET
 10
62.823799999999991
 20
26.022500000000001
 30
0.0
 11
51.737299999999991
 21
21.430299999999999
 31
0.0
  0
LINE
  5
E9
  8
Z88NET
 10
51.737299999999991
 20
21.430299999999999
 30
0.0
 11
54.923999999999992
 21
10.9251
 31
0.0
  0
LINE
  5
EA
  8
Z88NET
 10
54.923999999999992
 20
10.9251
 30
0.0
 11
56.0
 21
0.0
 31
0.0
  0
LINE
  5
EB
  8
Z88NET
 10
36.955199999999998
 20
15.3073
 30
0.0
 11
44.346200000000003
 21
18.3688
 31
0.0
  0
LINE
  5
EC
  8
Z88NET
 10
44.346200000000003
 20
18.3688
 30
0.0
 11
51.737299999999991
 21
21.430299999999999
 31
0.0
  0
LINE
  5
ED
  8
Z88NET
 10
51.737299999999991
 20
21.430299999999999
 30
0.0
 11
46.562299999999993
 21
31.111899999999999
 31
0.0
  0
LINE
  5
EE
  8
Z88NET
 10
46.562299999999993
 20
31.111899999999999
 30
0.0
 11
39.597999999999999
 21
39.597999999999999
 31
0.0
  0
LINE
  5
EF
  8
Z88NET
 10
39.597999999999999
 20
39.597999999999999
 30
0.0
 11
33.941099999999999
 21
33.941099999999999
 31
0.0
  0
LINE
  5
F0
  8
Z88NET
 10
33.941099999999999
 20
33.941099999999999
 30
0.0
 11
28.284300000000002
 21
28.284300000000002
 31
0.0
  0
LINE
  5
F1
  8
Z88NET
 10
28.284300000000002
 20
28.284300000000002
 30
0.0
 11
33.258800000000001
 21
22.222799999999999
 31
0.0
  0
LINE
  5
F2
  8
Z88NET
 10
33.258800000000001
 20
22.222799999999999
 30
0.0
 11
36.955199999999998
 21
15.3073
 31
0.0
  0
LINE
  5
F3
  8
Z88NET
 10
51.737299999999991
 20
21.430299999999999
 30
0.0
 11
62.823799999999991
 21
26.022500000000001
 31
0.0
  0
LINE
  5
F4
  8
Z88NET
 10
62.823799999999991
 20
26.022500000000001
 30
0.0
 11
73.910399999999996
 21
30.614699999999999
 31
0.0
  0
LINE
  5
F5
  8
Z88NET
 10
73.910399999999996
 20
30.614699999999999
 30
0.0
 11
66.517600000000002
 21
44.445599999999999
 31
0.0
  0
LINE
  5
F6
  8
Z88NET
 10
66.517600000000002
 20
44.445599999999999
 30
0.0
 11
56.5685
 21
56.5685
 31
0.0
  0
LINE
  5
F7
  8
Z88NET
 10
56.5685
 20
56.5685
 30
0.0
 11
48.083300000000001
 21
48.083300000000001
 31
0.0
  0
LINE
  5
F8
  8
Z88NET
 10
48.083300000000001
 20
48.083300000000001
 30
0.0
 11
39.597999999999999
 21
39.597999999999999
 31
0.0
  0
LINE
  5
F9
  8
Z88NET
 10
39.597999999999999
 20
39.597999999999999
 30
0.0
 11
46.562299999999993
 21
31.111899999999999
 31
0.0
  0
LINE
  5
FA
  8
Z88NET
 10
46.562299999999993
 20
31.111899999999999
 30
0.0
 11
51.737299999999991
 21
21.430299999999999
 31
0.0
  0
LINE
  5
FB
  8
Z88NET
 10
28.284300000000002
 20
28.284300000000002
 30
0.0
 11
33.941099999999999
 21
33.941099999999999
 31
0.0
  0
LINE
  5
FC
  8
Z88NET
 10
33.941099999999999
 20
33.941099999999999
 30
0.0
 11
39.597999999999999
 21
39.597999999999999
 31
0.0
  0
LINE
  5
FD
  8
Z88NET
 10
39.597999999999999
 20
39.597999999999999
 30
0.0
 11
31.111899999999999
 21
46.562299999999993
 31
0.0
  0
LINE
  5
FE
  8
Z88NET
 10
31.111899999999999
 20
46.562299999999993
 30
0.0
 11
21.430299999999999
 21
51.737299999999991
 31
0.0
  0
LINE
  5
FF
  8
Z88NET
 10
21.430299999999999
 20
51.737299999999991
 30
0.0
 11
18.3688
 21
44.346200000000003
 31
0.0
  0
LINE
  5
100
  8
Z88NET
 10
18.3688
 20
44.346200000000003
 30
0.0
 11
15.3073
 21
36.955199999999998
 31
0.0
  0
LINE
  5
101
  8
Z88NET
 10
15.3073
 20
36.955199999999998
 30
0.0
 11
22.222799999999999
 21
33.258800000000001
 31
0.0
  0
LINE
  5
102
  8
Z88NET
 10
22.222799999999999
 20
33.258800000000001
 30
0.0
 11
28.284300000000002
 21
28.284300000000002
 31
0.0
  0
LINE
  5
103
  8
Z88NET
 10
39.597999999999999
 20
39.597999999999999
 30
0.0
 11
48.083300000000001
 21
48.083300000000001
 31
0.0
  0
LINE
  5
104
  8
Z88NET
 10
48.083300000000001
 20
48.083300000000001
 30
0.0
 11
56.5685
 21
56.5685
 31
0.0
  0
LINE
  5
105
  8
Z88NET
 10
56.5685
 20
56.5685
 30
0.0
 11
44.445599999999999
 21
66.517600000000002
 31
0.0
  0
LINE
  5
106
  8
Z88NET
 10
44.445599999999999
 20
66.517600000000002
 30
0.0
 11
30.614699999999999
 21
73.910399999999996
 31
0.0
  0
LINE
  5
107
  8
Z88NET
 10
30.614699999999999
 20
73.910399999999996
 30
0.0
 11
26.022500000000001
 21
62.823799999999991
 31
0.0
  0
LINE
  5
108
  8
Z88NET
 10
26.022500000000001
 20
62.823799999999991
 30
0.0
 11
21.430299999999999
 21
51.737299999999991
 31
0.0
  0
LINE
  5
109
  8
Z88NET
 10
21.430299999999999
 20
51.737299999999991
 30
0.0
 11
31.111899999999999
 21
46.562299999999993
 31
0.0
  0
LINE
  5
10A
  8
Z88NET
 10
31.111899999999999
 20
46.562299999999993
 30
0.0
 11
39.597999999999999
 21
39.597999999999999
 31
0.0
  0
LINE
  5
10B
  8
Z88NET
 10
15.3073
 20
36.955199999999998
 30
0.0
 11
18.3688
 21
44.346200000000003
 31
0.0
  0
LINE
  5
10C
  8
Z88NET
 10
18.3688
 20
44.346200000000003
 30
0.0
 11
21.430299999999999
 21
51.737299999999991
 31
0.0
  0
LINE
  5
10D
  8
Z88NET
 10
21.430299999999999
 20
51.737299999999991
 30
0.0
 11
10.925000000000001
 21
54.923999999999992
 31
0.0
  0
LINE
  5
10E
  8
Z88NET
 10
10.925000000000001
 20
54.923999999999992
 30
0.0
 11
-0.00000969949
 21
56.0
 31
0.0
  0
LINE
  5
10F
  8
Z88NET
 10
-0.00000969949
 20
56.0
 30
0.0
 11
-0.00000831384
 21
48.0
 31
0.0
  0
LINE
  5
110
  8
Z88NET
 10
-0.00000831384
 20
48.0
 30
0.0
 11
-0.0000069282
 21
40.0
 31
0.0
  0
LINE
  5
111
  8
Z88NET
 10
-0.0000069282
 20
40.0
 30
0.0
 11
7.8036099999999999
 21
39.231400000000001
 31
0.0
  0
LINE
  5
112
  8
Z88NET
 10
7.8036099999999999
 20
39.231400000000001
 30
0.0
 11
15.3073
 21
36.955199999999998
 31
0.0
  0
LINE
  5
113
  8
Z88NET
 10
21.430299999999999
 20
51.737299999999991
 30
0.0
 11
26.022500000000001
 21
62.823799999999991
 31
0.0
  0
LINE
  5
114
  8
Z88NET
 10
26.022500000000001
 20
62.823799999999991
 30
0.0
 11
30.614699999999999
 21
73.910399999999996
 31
0.0
  0
LINE
  5
115
  8
Z88NET
 10
30.614699999999999
 20
73.910399999999996
 30
0.0
 11
15.607200000000001
 21
78.462800000000001
 31
0.0
  0
LINE
  5
116
  8
Z88NET
 10
15.607200000000001
 20
78.462800000000001
 30
0.0
 11
-0.0000138564
 21
80.0
 31
0.0
  0
LINE
  5
117
  8
Z88NET
 10
-0.0000138564
 20
80.0
 30
0.0
 11
-0.0000117779
 21
68.0
 31
0.0
  0
LINE
  5
118
  8
Z88NET
 10
-0.0000117779
 20
68.0
 30
0.0
 11
-0.00000969949
 21
56.0
 31
0.0
  0
LINE
  5
119
  8
Z88NET
 10
-0.00000969949
 20
56.0
 30
0.0
 11
10.925000000000001
 21
54.923999999999992
 31
0.0
  0
LINE
  5
11A
  8
Z88NET
 10
10.925000000000001
 20
54.923999999999992
 30
0.0
 11
21.430299999999999
 21
51.737299999999991
 31
0.0
  0
ENDSEC
  0
EOF
