  0
SECTION
  2
HEADER
  9
$ACADVER
  1
AC1009
  9
$INSBASE
 10
0.0
 20
0.0
 30
0.0
  9
$EXTMIN
 10
-250.0
 20
-90.0
 30
0.0
  9
$EXTMAX
 10
1016.6666666666659
 20
9.2401148199725665
 30
0.0
  9
$LIMMIN
 10
-250.0
 20
0.0
  9
$LIMMAX
 10
1250.0
 20
0.0
  9
$ORTHOMODE
 70
     0
  9
$REGENMODE
 70
     1
  9
$FILLMODE
 70
     1
  9
$QTEXTMODE
 70
     0
  9
$MIRRTEXT
 70
     0
  9
$DRAGMODE
 70
     2
  9
$LTSCALE
 40
1.0
  9
$OSMODE
 70
    37
  9
$ATTMODE
 70
     1
  9
$TEXTSIZE
 40
0.2
  9
$TRACEWID
 40
0.05
  9
$TEXTSTYLE
  7
STANDARD
  9
$CLAYER
  8
Z88NET
  9
$CELTYPE
  6
CONTINUOUS
  9
$CECOLOR
 62
   256
  9
$DIMSCALE
 40
1.0
  9
$DIMASZ
 40
0.18
  9
$DIMEXO
 40
0.0625
  9
$DIMDLI
 40
0.38
  9
$DIMRND
 40
0.0
  9
$DIMDLE
 40
0.0
  9
$DIMEXE
 40
0.18
  9
$DIMTP
 40
0.0
  9
$DIMTM
 40
0.0
  9
$DIMTXT
 40
0.18
  9
$DIMCEN
 40
0.09
  9
$DIMTSZ
 40
0.0
  9
$DIMTOL
 70
     0
  9
$DIMLIM
 70
     0
  9
$DIMTIH
 70
     1
  9
$DIMTOH
 70
     1
  9
$DIMSE1
 70
     0
  9
$DIMSE2
 70
     0
  9
$DIMTAD
 70
     0
  9
$DIMZIN
 70
     0
  9
$DIMBLK
  1

  9
$DIMASO
 70
     1
  9
$DIMSHO
 70
     1
  9
$DIMPOST
  1

  9
$DIMAPOST
  1

  9
$DIMALT
 70
     0
  9
$DIMALTD
 70
     2
  9
$DIMALTF
 40
25.399999999999999
  9
$DIMLFAC
 40
1.0
  9
$DIMTOFL
 70
     0
  9
$DIMTVP
 40
0.0
  9
$DIMTIX
 70
     0
  9
$DIMSOXD
 70
     0
  9
$DIMSAH
 70
     0
  9
$DIMBLK1
  1

  9
$DIMBLK2
  1

  9
$DIMSTYLE
  2
STANDARD
  9
$DIMCLRD
 70
     0
  9
$DIMCLRE
 70
     0
  9
$DIMCLRT
 70
     0
  9
$DIMTFAC
 40
1.0
  9
$DIMGAP
 40
0.09
  9
$LUNITS
 70
     2
  9
$LUPREC
 70
     4
  9
$SKETCHINC
 40
0.1
  9
$FILLETRAD
 40
0.0
  9
$AUNITS
 70
     0
  9
$AUPREC
 70
     0
  9
$MENU
  1
.
  9
$ELEVATION
 40
0.0
  9
$PELEVATION
 40
0.0
  9
$THICKNESS
 40
0.0
  9
$LIMCHECK
 70
     0
  9
$BLIPMODE
 70
     0
  9
$CHAMFERA
 40
0.0
  9
$CHAMFERB
 40
0.0
  9
$SKPOLY
 70
     0
  9
$TDCREATE
 40
2455784.6918592602
  9
$TDUPDATE
 40
2455784.6921754279
  9
$TDINDWG
 40
0.0003164699
  9
$TDUSRTIMER
 40
0.0003164699
  9
$USRTIMER
 70
     1
  9
$ANGBASE
 50
0.0
  9
$ANGDIR
 70
     0
  9
$PDMODE
 70
     3
  9
$PDSIZE
 40
-3.0
  9
$PLINEWID
 40
0.0
  9
$COORDS
 70
     1
  9
$SPLFRAME
 70
     0
  9
$SPLINETYPE
 70
     6
  9
$SPLINESEGS
 70
     8
  9
$ATTDIA
 70
     0
  9
$ATTREQ
 70
     1
  9
$HANDLING
 70
     1
  9
$HANDSEED
  5
135
  9
$SURFTAB1
 70
     6
  9
$SURFTAB2
 70
     6
  9
$SURFTYPE
 70
     6
  9
$SURFU
 70
     6
  9
$SURFV
 70
     6
  9
$UCSNAME
  2

  9
$UCSORG
 10
0.0
 20
0.0
 30
0.0
  9
$UCSXDIR
 10
1.0
 20
0.0
 30
0.0
  9
$UCSYDIR
 10
0.0
 20
1.0
 30
0.0
  9
$PUCSNAME
  2

  9
$PUCSORG
 10
0.0
 20
0.0
 30
0.0
  9
$PUCSXDIR
 10
1.0
 20
0.0
 30
0.0
  9
$PUCSYDIR
 10
0.0
 20
1.0
 30
0.0
  9
$USERI1
 70
     0
  9
$USERI2
 70
     0
  9
$USERI3
 70
     0
  9
$USERI4
 70
     0
  9
$USERI5
 70
     0
  9
$USERR1
 40
0.0
  9
$USERR2
 40
0.0
  9
$USERR3
 40
0.0
  9
$USERR4
 40
0.0
  9
$USERR5
 40
0.0
  9
$WORLDVIEW
 70
     1
  9
$SHADEDGE
 70
     3
  9
$SHADEDIF
 70
    70
  9
$TILEMODE
 70
     1
  9
$MAXACTVP
 70
    64
  9
$PLIMCHECK
 70
     0
  9
$PEXTMIN
 10
1.0000000000000000E+020
 20
1.0000000000000000E+020
 30
1.0000000000000000E+020
  9
$PEXTMAX
 10
-1.0000000000000000E+020
 20
-1.0000000000000000E+020
 30
-1.0000000000000000E+020
  9
$PLIMMIN
 10
0.0
 20
0.0
  9
$PLIMMAX
 10
12.0
 20
9.0
  9
$UNITMODE
 70
     0
  9
$VISRETAIN
 70
     1
  9
$PLINEGEN
 70
     0
  9
$PSLTSCALE
 70
     1
  0
ENDSEC
  0
SECTION
  2
TABLES
  0
TABLE
  2
VPORT
 70
     1
  0
VPORT
  2
*ACTIVE
 70
     0
 10
0.0
 20
0.0
 11
1.0
 21
1.0
 12
500.0
 22
-40.379942590013677
 13
0.0
 23
0.0
 14
1.0
 24
1.0
 15
0.0
 25
0.0
 16
0.0
 26
0.0
 36
1.0
 17
0.0
 27
0.0
 37
0.0
 40
871.09642446154692
 41
1.7301369863013689
 42
50.0
 43
0.0
 44
0.0
 50
0.0
 51
0.0
 71
     0
 72
   100
 73
     1
 74
     1
 75
     0
 76
     0
 77
     0
 78
     0
  0
ENDTAB
  0
TABLE
  2
LTYPE
 70
     1
  0
LTYPE
  2
CONTINUOUS
 70
     0
  3
Solid line
 72
    65
 73
     0
 40
0.0
  0
ENDTAB
  0
TABLE
  2
LAYER
 70
     8
  0
LAYER
  2
0
 70
     0
 62
    -7
  6
CONTINUOUS
  0
LAYER
  2
Z88NET
 70
     0
 62
     5
  6
CONTINUOUS
  0
LAYER
  2
Z88EIO
 70
     0
 62
     5
  6
CONTINUOUS
  0
LAYER
  2
Z88KNR
 70
     0
 62
     1
  6
CONTINUOUS
  0
LAYER
  2
Z88RBD
 70
     0
 62
     6
  6
CONTINUOUS
  0
LAYER
  2
Z88FLA
 70
     0
 62
     6
  6
CONTINUOUS
  0
LAYER
  2
Z88GEN
 70
     0
 62
     6
  6
CONTINUOUS
  0
LAYER
  2
Z88PKT
 70
     0
 62
     1
  6
CONTINUOUS
  0
ENDTAB
  0
TABLE
  2
STYLE
 70
     2
  0
STYLE
  2
STANDARD
 70
     0
 40
0.0
 41
1.0
 50
0.0
 71
     0
 42
0.2
  3
txt
  4

  0
STYLE
  2
ANNOTATIVE
 70
     0
 40
0.0
 41
1.0
 50
0.0
 71
     0
 42
0.2
  3
txt
  4

  0
ENDTAB
  0
TABLE
  2
VIEW
 70
     0
  0
ENDTAB
  0
TABLE
  2
UCS
 70
     0
  0
ENDTAB
  0
TABLE
  2
APPID
 70
     3
  0
APPID
  2
ACAD
 70
     0
  0
APPID
  2
ACADANNOTATIVE
 70
     0
  0
APPID
  2
ACAD_MLEADERVER
 70
     0
  0
ENDTAB
  0
TABLE
  2
DIMSTYLE
 70
     2
  0
DIMSTYLE
  2
STANDARD
 70
     0
  3

  4

  5

  6

  7

 40
1.0
 41
0.18
 42
0.0625
 43
0.38
 44
0.18
 45
0.0
 46
0.0
 47
0.0
 48
0.0
140
0.18
141
0.09
142
0.0
143
25.399999999999999
144
1.0
145
0.0
146
1.0
147
0.09
 71
     0
 72
     0
 73
     1
 74
     1
 75
     0
 76
     0
 77
     0
 78
     0
170
     0
171
     2
172
     0
173
     0
174
     0
175
     0
176
     0
177
     0
178
     0
  0
DIMSTYLE
  2
ANNOTATIVE
 70
     0
  3

  4

  5

  6

  7

 40
1.0
 41
0.18
 42
0.0625
 43
0.38
 44
0.18
 45
0.0
 46
0.0
 47
0.0
 48
0.0
140
0.18
141
0.09
142
0.0
143
25.399999999999999
144
1.0
145
0.0
146
1.0
147
0.09
 71
     0
 72
     0
 73
     1
 74
     1
 75
     0
 76
     0
 77
     0
 78
     0
170
     0
171
     2
172
     0
173
     0
174
     0
175
     0
176
     0
177
     0
178
     0
  0
ENDTAB
  0
ENDSEC
  0
SECTION
  2
BLOCKS
  0
BLOCK
  8
0
  2
$MODEL_SPACE
 70
     0
 10
0.0
 20
0.0
 30
0.0
  3
$MODEL_SPACE
  1

  0
ENDBLK
  5
6D
  8
0
  0
BLOCK
 67
     1
  8
0
  2
$PAPER_SPACE
 70
     0
 10
0.0
 20
0.0
 30
0.0
  3
$PAPER_SPACE
  1

  0
ENDBLK
  5
69
 67
     1
  8
0
  0
ENDSEC
  0
SECTION
  2
ENTITIES
  0
TEXT
  5
78
  8
Z88GEN
 10
-250.0
 20
-7.5
 30
0.0
 40
5.0
  1
Z88I1.TXT 2 21 20 63 0
  0
TEXT
  5
79
  8
Z88RBD
 10
-250.0
 20
-22.5
 30
0.0
 40
5.0
  1
Z88I2.TXT 6
  0
TEXT
  5
7A
  8
Z88RBD
 10
-250.0
 20
-30.0
 30
0.0
 40
5.0
  1
RBD 1 1 1 2 0
  0
TEXT
  5
7B
  8
Z88RBD
 10
-250.0
 20
-37.5
 30
0.0
 40
5.0
  1
RBD 2 1 2 2 0
  0
TEXT
  5
7C
  8
Z88RBD
 10
-250.0
 20
-45.0
 30
0.0
 40
5.0
  1
RBD 3 1 3 2 0
  0
TEXT
  5
7D
  8
Z88RBD
 10
-250.0
 20
-52.5
 30
0.0
 40
5.0
  1
RBD 4 11 2 1 -1648
  0
TEXT
  5
7E
  8
Z88RBD
 10
-250.0
 20
-60.0
 30
0.0
 40
5.0
  1
RBD 5 21 2 2 0
  0
TEXT
  5
7F
  8
Z88RBD
 10
-250.0
 20
-67.5
 30
0.0
 40
5.0
  1
RBD 6 21 3 2 0
  0
TEXT
  5
80
  8
Z88FLA
 10
-250.0
 20
-90.0
 30
0.0
 40
5.0
  1
Z88I5.TXT 0
  0
POINT
  5
81
  8
Z88PKT
 10
0.0
 20
0.0
 30
0.0
  0
TEXT
  5
82
  8
Z88KNR
 10
0.0
 20
0.0
 30
0.0
 40
5.0
  1
P 1
  0
POINT
  5
83
  8
Z88PKT
 10
50.0
 20
0.0
 30
0.0
  0
TEXT
  5
84
  8
Z88KNR
 10
50.0
 20
0.0
 30
0.0
 40
5.0
  1
P 2
  0
POINT
  5
85
  8
Z88PKT
 10
100.0
 20
0.0
 30
0.0
  0
TEXT
  5
86
  8
Z88KNR
 10
100.0
 20
0.0
 30
0.0
 40
5.0
  1
P 3
  0
POINT
  5
87
  8
Z88PKT
 10
150.0
 20
0.0
 30
0.0
  0
TEXT
  5
88
  8
Z88KNR
 10
150.0
 20
0.0
 30
0.0
 40
5.0
  1
P 4
  0
POINT
  5
89
  8
Z88PKT
 10
200.0
 20
0.0
 30
0.0
  0
TEXT
  5
8A
  8
Z88KNR
 10
200.0
 20
0.0
 30
0.0
 40
5.0
  1
P 5
  0
POINT
  5
8B
  8
Z88PKT
 10
250.0
 20
0.0
 30
0.0
  0
TEXT
  5
8C
  8
Z88KNR
 10
250.0
 20
0.0
 30
0.0
 40
5.0
  1
P 6
  0
POINT
  5
8D
  8
Z88PKT
 10
300.0
 20
0.0
 30
0.0
  0
TEXT
  5
8E
  8
Z88KNR
 10
300.0
 20
0.0
 30
0.0
 40
5.0
  1
P 7
  0
POINT
  5
8F
  8
Z88PKT
 10
350.0
 20
0.0
 30
0.0
  0
TEXT
  5
90
  8
Z88KNR
 10
350.0
 20
0.0
 30
0.0
 40
5.0
  1
P 8
  0
POINT
  5
91
  8
Z88PKT
 10
400.0
 20
0.0
 30
0.0
  0
TEXT
  5
92
  8
Z88KNR
 10
400.0
 20
0.0
 30
0.0
 40
5.0
  1
P 9
  0
POINT
  5
93
  8
Z88PKT
 10
450.0
 20
0.0
 30
0.0
  0
TEXT
  5
94
  8
Z88KNR
 10
450.0
 20
0.0
 30
0.0
 40
5.0
  1
P 10
  0
POINT
  5
95
  8
Z88PKT
 10
500.0
 20
0.0
 30
0.0
  0
TEXT
  5
96
  8
Z88KNR
 10
500.0
 20
0.0
 30
0.0
 40
5.0
  1
P 11
  0
POINT
  5
97
  8
Z88PKT
 10
550.0
 20
0.0
 30
0.0
  0
TEXT
  5
98
  8
Z88KNR
 10
550.0
 20
0.0
 30
0.0
 40
5.0
  1
P 12
  0
POINT
  5
99
  8
Z88PKT
 10
600.0
 20
0.0
 30
0.0
  0
TEXT
  5
9A
  8
Z88KNR
 10
600.0
 20
0.0
 30
0.0
 40
5.0
  1
P 13
  0
POINT
  5
9B
  8
Z88PKT
 10
650.0
 20
0.0
 30
0.0
  0
TEXT
  5
9C
  8
Z88KNR
 10
650.0
 20
0.0
 30
0.0
 40
5.0
  1
P 14
  0
POINT
  5
9D
  8
Z88PKT
 10
700.0
 20
0.0
 30
0.0
  0
TEXT
  5
9E
  8
Z88KNR
 10
700.0
 20
0.0
 30
0.0
 40
5.0
  1
P 15
  0
POINT
  5
9F
  8
Z88PKT
 10
750.0
 20
0.0
 30
0.0
  0
TEXT
  5
A0
  8
Z88KNR
 10
750.0
 20
0.0
 30
0.0
 40
5.0
  1
P 16
  0
POINT
  5
A1
  8
Z88PKT
 10
800.0
 20
0.0
 30
0.0
  0
TEXT
  5
A2
  8
Z88KNR
 10
800.0
 20
0.0
 30
0.0
 40
5.0
  1
P 17
  0
POINT
  5
A3
  8
Z88PKT
 10
850.0
 20
0.0
 30
0.0
  0
TEXT
  5
A4
  8
Z88KNR
 10
850.0
 20
0.0
 30
0.0
 40
5.0
  1
P 18
  0
POINT
  5
A5
  8
Z88PKT
 10
900.0
 20
0.0
 30
0.0
  0
TEXT
  5
A6
  8
Z88KNR
 10
900.0
 20
0.0
 30
0.0
 40
5.0
  1
P 19
  0
POINT
  5
A7
  8
Z88PKT
 10
950.0
 20
0.0
 30
0.0
  0
TEXT
  5
A8
  8
Z88KNR
 10
950.0
 20
0.0
 30
0.0
 40
5.0
  1
P 20
  0
POINT
  5
A9
  8
Z88PKT
 10
1000.0
 20
0.0
 30
0.0
  0
TEXT
  5
AA
  8
Z88KNR
 10
1000.0
 20
0.0
 30
0.0
 40
5.0
  1
P 21
  0
TEXT
  5
AB
  8
Z88EIO
 10
25.0
 20
0.0
 30
0.0
 40
5.0
  1
FE 1 13
  0
TEXT
  5
AC
  8
Z88EIO
 10
75.0
 20
0.0
 30
0.0
 40
5.0
  1
FE 2 13
  0
TEXT
  5
AD
  8
Z88EIO
 10
125.0
 20
0.0
 30
0.0
 40
5.0
  1
FE 3 13
  0
TEXT
  5
AE
  8
Z88EIO
 10
175.0
 20
0.0
 30
0.0
 40
5.0
  1
FE 4 13
  0
TEXT
  5
AF
  8
Z88EIO
 10
225.0
 20
0.0
 30
0.0
 40
5.0
  1
FE 5 13
  0
TEXT
  5
B0
  8
Z88EIO
 10
275.0
 20
0.0
 30
0.0
 40
5.0
  1
FE 6 13
  0
TEXT
  5
B1
  8
Z88EIO
 10
325.0
 20
0.0
 30
0.0
 40
5.0
  1
FE 7 13
  0
TEXT
  5
B2
  8
Z88EIO
 10
375.0
 20
0.0
 30
0.0
 40
5.0
  1
FE 8 13
  0
TEXT
  5
B3
  8
Z88EIO
 10
425.0
 20
0.0
 30
0.0
 40
5.0
  1
FE 9 13
  0
TEXT
  5
B4
  8
Z88EIO
 10
475.0
 20
0.0
 30
0.0
 40
5.0
  1
FE 10 13
  0
TEXT
  5
B5
  8
Z88EIO
 10
525.0
 20
0.0
 30
0.0
 40
5.0
  1
FE 11 13
  0
TEXT
  5
B6
  8
Z88EIO
 10
575.0
 20
0.0
 30
0.0
 40
5.0
  1
FE 12 13
  0
TEXT
  5
B7
  8
Z88EIO
 10
625.0
 20
0.0
 30
0.0
 40
5.0
  1
FE 13 13
  0
TEXT
  5
B8
  8
Z88EIO
 10
675.0
 20
0.0
 30
0.0
 40
5.0
  1
FE 14 13
  0
TEXT
  5
B9
  8
Z88EIO
 10
725.0
 20
0.0
 30
0.0
 40
5.0
  1
FE 15 13
  0
TEXT
  5
BA
  8
Z88EIO
 10
775.0
 20
0.0
 30
0.0
 40
5.0
  1
FE 16 13
  0
TEXT
  5
BB
  8
Z88EIO
 10
825.0
 20
0.0
 30
0.0
 40
5.0
  1
FE 17 13
  0
TEXT
  5
BC
  8
Z88EIO
 10
875.0
 20
0.0
 30
0.0
 40
5.0
  1
FE 18 13
  0
TEXT
  5
BD
  8
Z88EIO
 10
925.0
 20
0.0
 30
0.0
 40
5.0
  1
FE 19 13
  0
TEXT
  5
BE
  8
Z88EIO
 10
975.0
 20
0.0
 30
0.0
 40
5.0
  1
FE 20 13
  0
LINE
  5
BF
  8
Z88NET
 10
0.0
 20
0.0
 30
0.0
 11
50.0
 21
0.0
 31
0.0
  0
LINE
  5
C0
  8
Z88NET
 10
50.0
 20
0.0
 30
0.0
 11
100.0
 21
0.0
 31
0.0
  0
LINE
  5
C1
  8
Z88NET
 10
100.0
 20
0.0
 30
0.0
 11
150.0
 21
0.0
 31
0.0
  0
LINE
  5
C2
  8
Z88NET
 10
150.0
 20
0.0
 30
0.0
 11
200.0
 21
0.0
 31
0.0
  0
LINE
  5
C3
  8
Z88NET
 10
200.0
 20
0.0
 30
0.0
 11
250.0
 21
0.0
 31
0.0
  0
LINE
  5
C4
  8
Z88NET
 10
250.0
 20
0.0
 30
0.0
 11
300.0
 21
0.0
 31
0.0
  0
LINE
  5
C5
  8
Z88NET
 10
300.0
 20
0.0
 30
0.0
 11
350.0
 21
0.0
 31
0.0
  0
LINE
  5
C6
  8
Z88NET
 10
350.0
 20
0.0
 30
0.0
 11
400.0
 21
0.0
 31
0.0
  0
LINE
  5
C7
  8
Z88NET
 10
400.0
 20
0.0
 30
0.0
 11
450.0
 21
0.0
 31
0.0
  0
LINE
  5
C8
  8
Z88NET
 10
450.0
 20
0.0
 30
0.0
 11
500.0
 21
0.0
 31
0.0
  0
LINE
  5
C9
  8
Z88NET
 10
500.0
 20
0.0
 30
0.0
 11
550.0
 21
0.0
 31
0.0
  0
LINE
  5
CA
  8
Z88NET
 10
550.0
 20
0.0
 30
0.0
 11
600.0
 21
0.0
 31
0.0
  0
LINE
  5
CB
  8
Z88NET
 10
600.0
 20
0.0
 30
0.0
 11
650.0
 21
0.0
 31
0.0
  0
LINE
  5
CC
  8
Z88NET
 10
650.0
 20
0.0
 30
0.0
 11
700.0
 21
0.0
 31
0.0
  0
LINE
  5
CD
  8
Z88NET
 10
700.0
 20
0.0
 30
0.0
 11
750.0
 21
0.0
 31
0.0
  0
LINE
  5
CE
  8
Z88NET
 10
750.0
 20
0.0
 30
0.0
 11
800.0
 21
0.0
 31
0.0
  0
LINE
  5
CF
  8
Z88NET
 10
800.0
 20
0.0
 30
0.0
 11
850.0
 21
0.0
 31
0.0
  0
LINE
  5
D0
  8
Z88NET
 10
850.0
 20
0.0
 30
0.0
 11
900.0
 21
0.0
 31
0.0
  0
LINE
  5
D1
  8
Z88NET
 10
900.0
 20
0.0
 30
0.0
 11
950.0
 21
0.0
 31
0.0
  0
LINE
  5
D2
  8
Z88NET
 10
950.0
 20
0.0
 30
0.0
 11
1000.0
 21
0.0
 31
0.0
  0
ENDSEC
  0
EOF
