  0
SECTION
  2
HEADER
  9
$ACADVER
  1
AC1009
  9
$INSBASE
 10
0.0
 20
0.0
 30
0.0
  9
$EXTMIN
 10
-6000.0
 20
-147.84183711956101
 30
0.0
  9
$EXTMAX
 10
12301.92
 20
2973.360000000001
 30
2000.0
  9
$LIMMIN
 10
-6000.0
 20
-1000.0
  9
$LIMMAX
 10
18000.0
 20
3000.0
  9
$ORTHOMODE
 70
     0
  9
$REGENMODE
 70
     1
  9
$FILLMODE
 70
     1
  9
$QTEXTMODE
 70
     0
  9
$MIRRTEXT
 70
     0
  9
$DRAGMODE
 70
     2
  9
$LTSCALE
 40
1.0
  9
$OSMODE
 70
    37
  9
$ATTMODE
 70
     1
  9
$TEXTSIZE
 40
0.2
  9
$TRACEWID
 40
0.05
  9
$TEXTSTYLE
  7
STANDARD
  9
$CLAYER
  8
Z88NET
  9
$CELTYPE
  6
CONTINUOUS
  9
$CECOLOR
 62
   256
  9
$DIMSCALE
 40
1.0
  9
$DIMASZ
 40
0.18
  9
$DIMEXO
 40
0.0625
  9
$DIMDLI
 40
0.38
  9
$DIMRND
 40
0.0
  9
$DIMDLE
 40
0.0
  9
$DIMEXE
 40
0.18
  9
$DIMTP
 40
0.0
  9
$DIMTM
 40
0.0
  9
$DIMTXT
 40
0.18
  9
$DIMCEN
 40
0.09
  9
$DIMTSZ
 40
0.0
  9
$DIMTOL
 70
     0
  9
$DIMLIM
 70
     0
  9
$DIMTIH
 70
     1
  9
$DIMTOH
 70
     1
  9
$DIMSE1
 70
     0
  9
$DIMSE2
 70
     0
  9
$DIMTAD
 70
     0
  9
$DIMZIN
 70
     0
  9
$DIMBLK
  1

  9
$DIMASO
 70
     1
  9
$DIMSHO
 70
     1
  9
$DIMPOST
  1

  9
$DIMAPOST
  1

  9
$DIMALT
 70
     0
  9
$DIMALTD
 70
     2
  9
$DIMALTF
 40
25.399999999999999
  9
$DIMLFAC
 40
1.0
  9
$DIMTOFL
 70
     0
  9
$DIMTVP
 40
0.0
  9
$DIMTIX
 70
     0
  9
$DIMSOXD
 70
     0
  9
$DIMSAH
 70
     0
  9
$DIMBLK1
  1

  9
$DIMBLK2
  1

  9
$DIMSTYLE
  2
STANDARD
  9
$DIMCLRD
 70
     0
  9
$DIMCLRE
 70
     0
  9
$DIMCLRT
 70
     0
  9
$DIMTFAC
 40
1.0
  9
$DIMGAP
 40
0.09
  9
$LUNITS
 70
     2
  9
$LUPREC
 70
     4
  9
$SKETCHINC
 40
0.1
  9
$FILLETRAD
 40
0.0
  9
$AUNITS
 70
     0
  9
$AUPREC
 70
     0
  9
$MENU
  1
.
  9
$ELEVATION
 40
0.0
  9
$PELEVATION
 40
0.0
  9
$THICKNESS
 40
0.0
  9
$LIMCHECK
 70
     0
  9
$BLIPMODE
 70
     0
  9
$CHAMFERA
 40
0.0
  9
$CHAMFERB
 40
0.0
  9
$SKPOLY
 70
     0
  9
$TDCREATE
 40
2455784.653927628
  9
$TDUPDATE
 40
2455784.6551218401
  9
$TDINDWG
 40
0.0011947569
  9
$TDUSRTIMER
 40
0.0011947569
  9
$USRTIMER
 70
     1
  9
$ANGBASE
 50
0.0
  9
$ANGDIR
 70
     0
  9
$PDMODE
 70
     3
  9
$PDSIZE
 40
-3.0
  9
$PLINEWID
 40
0.0
  9
$COORDS
 70
     1
  9
$SPLFRAME
 70
     0
  9
$SPLINETYPE
 70
     6
  9
$SPLINESEGS
 70
     8
  9
$ATTDIA
 70
     0
  9
$ATTREQ
 70
     1
  9
$HANDLING
 70
     1
  9
$HANDSEED
  5
17B
  9
$SURFTAB1
 70
     6
  9
$SURFTAB2
 70
     6
  9
$SURFTYPE
 70
     6
  9
$SURFU
 70
     6
  9
$SURFV
 70
     6
  9
$UCSNAME
  2

  9
$UCSORG
 10
0.0
 20
0.0
 30
0.0
  9
$UCSXDIR
 10
1.0
 20
0.0
 30
0.0
  9
$UCSYDIR
 10
0.0
 20
1.0
 30
0.0
  9
$PUCSNAME
  2

  9
$PUCSORG
 10
0.0
 20
0.0
 30
0.0
  9
$PUCSXDIR
 10
1.0
 20
0.0
 30
0.0
  9
$PUCSYDIR
 10
0.0
 20
1.0
 30
0.0
  9
$USERI1
 70
     0
  9
$USERI2
 70
     0
  9
$USERI3
 70
     0
  9
$USERI4
 70
     0
  9
$USERI5
 70
     0
  9
$USERR1
 40
0.0
  9
$USERR2
 40
0.0
  9
$USERR3
 40
0.0
  9
$USERR4
 40
0.0
  9
$USERR5
 40
0.0
  9
$WORLDVIEW
 70
     1
  9
$SHADEDGE
 70
     3
  9
$SHADEDIF
 70
    70
  9
$TILEMODE
 70
     1
  9
$MAXACTVP
 70
    64
  9
$PLIMCHECK
 70
     0
  9
$PEXTMIN
 10
1.0000000000000000E+020
 20
1.0000000000000000E+020
 30
1.0000000000000000E+020
  9
$PEXTMAX
 10
-1.0000000000000000E+020
 20
-1.0000000000000000E+020
 30
-1.0000000000000000E+020
  9
$PLIMMIN
 10
0.0
 20
0.0
  9
$PLIMMAX
 10
12.0
 20
9.0
  9
$UNITMODE
 70
     0
  9
$VISRETAIN
 70
     1
  9
$PLINEGEN
 70
     0
  9
$PSLTSCALE
 70
     1
  0
ENDSEC
  0
SECTION
  2
TABLES
  0
TABLE
  2
VPORT
 70
     1
  0
VPORT
  2
*ACTIVE
 70
     0
 10
0.0
 20
0.0
 11
1.0
 21
1.0
 12
-5255.6775474807264
 22
2315.5820165592122
 13
0.0
 23
0.0
 14
1.0
 24
1.0
 15
0.0
 25
0.0
 16
0.0
 26
0.0
 36
1.0
 17
0.0
 27
0.0
 37
0.0
 40
1639.71091777883
 41
1.7301369863013689
 42
50.0
 43
0.0
 44
0.0
 50
0.0
 51
0.0
 71
     0
 72
   100
 73
     1
 74
     1
 75
     0
 76
     0
 77
     0
 78
     0
  0
ENDTAB
  0
TABLE
  2
LTYPE
 70
     1
  0
LTYPE
  2
CONTINUOUS
 70
     0
  3
Solid line
 72
    65
 73
     0
 40
0.0
  0
ENDTAB
  0
TABLE
  2
LAYER
 70
     8
  0
LAYER
  2
0
 70
     0
 62
    -7
  6
CONTINUOUS
  0
LAYER
  2
Z88NET
 70
     0
 62
     5
  6
CONTINUOUS
  0
LAYER
  2
Z88EIO
 70
     0
 62
     5
  6
CONTINUOUS
  0
LAYER
  2
Z88KNR
 70
     0
 62
     1
  6
CONTINUOUS
  0
LAYER
  2
Z88RBD
 70
     0
 62
     6
  6
CONTINUOUS
  0
LAYER
  2
Z88FLA
 70
     0
 62
     6
  6
CONTINUOUS
  0
LAYER
  2
Z88GEN
 70
     0
 62
     6
  6
CONTINUOUS
  0
LAYER
  2
Z88PKT
 70
     0
 62
     1
  6
CONTINUOUS
  0
ENDTAB
  0
TABLE
  2
STYLE
 70
     2
  0
STYLE
  2
STANDARD
 70
     0
 40
0.0
 41
1.0
 50
0.0
 71
     0
 42
0.2
  3
txt
  4

  0
STYLE
  2
ANNOTATIVE
 70
     0
 40
0.0
 41
1.0
 50
0.0
 71
     0
 42
0.2
  3
txt
  4

  0
ENDTAB
  0
TABLE
  2
VIEW
 70
     0
  0
ENDTAB
  0
TABLE
  2
UCS
 70
     0
  0
ENDTAB
  0
TABLE
  2
APPID
 70
     3
  0
APPID
  2
ACAD
 70
     0
  0
APPID
  2
ACADANNOTATIVE
 70
     0
  0
APPID
  2
ACAD_MLEADERVER
 70
     0
  0
ENDTAB
  0
TABLE
  2
DIMSTYLE
 70
     2
  0
DIMSTYLE
  2
STANDARD
 70
     0
  3

  4

  5

  6

  7

 40
1.0
 41
0.18
 42
0.0625
 43
0.38
 44
0.18
 45
0.0
 46
0.0
 47
0.0
 48
0.0
140
0.18
141
0.09
142
0.0
143
25.399999999999999
144
1.0
145
0.0
146
1.0
147
0.09
 71
     0
 72
     0
 73
     1
 74
     1
 75
     0
 76
     0
 77
     0
 78
     0
170
     0
171
     2
172
     0
173
     0
174
     0
175
     0
176
     0
177
     0
178
     0
  0
DIMSTYLE
  2
ANNOTATIVE
 70
     0
  3

  4

  5

  6

  7

 40
1.0
 41
0.18
 42
0.0625
 43
0.38
 44
0.18
 45
0.0
 46
0.0
 47
0.0
 48
0.0
140
0.18
141
0.09
142
0.0
143
25.399999999999999
144
1.0
145
0.0
146
1.0
147
0.09
 71
     0
 72
     0
 73
     1
 74
     1
 75
     0
 76
     0
 77
     0
 78
     0
170
     0
171
     2
172
     0
173
     0
174
     0
175
     0
176
     0
177
     0
178
     0
  0
ENDTAB
  0
ENDSEC
  0
SECTION
  2
BLOCKS
  0
BLOCK
  8
0
  2
$MODEL_SPACE
 70
     0
 10
0.0
 20
0.0
 30
0.0
  3
$MODEL_SPACE
  1

  0
ENDBLK
  5
6D
  8
0
  0
BLOCK
 67
     1
  8
0
  2
$PAPER_SPACE
 70
     0
 10
0.0
 20
0.0
 30
0.0
  3
$PAPER_SPACE
  1

  0
ENDBLK
  5
69
 67
     1
  8
0
  0
ENDSEC
  0
SECTION
  2
ENTITIES
  0
TEXT
  5
78
  8
Z88GEN
 10
-6000.0
 20
2920.0799999999999
 30
0.0
 40
53.280000000000001
  1
Z88I1.TXT 3 20 54 60 0
  0
TEXT
  5
79
  8
Z88RBD
 10
-6000.0
 20
2760.2399999999998
 30
0.0
 40
53.280000000000001
  1
Z88I2.TXT 10
  0
TEXT
  5
7A
  8
Z88RBD
 10
-6000.0
 20
2680.3200000000002
 30
0.0
 40
53.280000000000001
  1
RBD 1 1 2 2 0
  0
TEXT
  5
7B
  8
Z88RBD
 10
-6000.0
 20
2600.4000000000001
 30
0.0
 40
53.280000000000001
  1
RBD 2 1 3 2 0
  0
TEXT
  5
7C
  8
Z88RBD
 10
-6000.0
 20
2520.48
 30
0.0
 40
53.280000000000001
  1
RBD 3 2 1 2 0
  0
TEXT
  5
7D
  8
Z88RBD
 10
-6000.0
 20
2440.5599999999999
 30
0.0
 40
53.280000000000001
  1
RBD 4 2 3 2 0
  0
TEXT
  5
7E
  8
Z88RBD
 10
-6000.0
 20
2360.6399999999999
 30
0.0
 40
53.280000000000001
  1
RBD 5 7 3 1 -30000
  0
TEXT
  5
7F
  8
Z88RBD
 10
-6000.0
 20
2280.7199999999998
 30
0.0
 40
53.280000000000001
  1
RBD 6 8 3 1 -30000
  0
TEXT
  5
80
  8
Z88RBD
 10
-6000.0
 20
2200.8000000000002
 30
0.0
 40
53.280000000000001
  1
RBD 7 19 1 2 0
  0
TEXT
  5
81
  8
Z88RBD
 10
-6000.0
 20
2120.8800000000001
 30
0.0
 40
53.280000000000001
  1
RBD 8 19 3 2 0
  0
TEXT
  5
82
  8
Z88RBD
 10
-6000.0
 20
2040.96
 30
0.0
 40
53.280000000000001
  1
RBD 9 20 2 2 0
  0
TEXT
  5
83
  8
Z88RBD
 10
-6000.0
 20
1961.04
 30
0.0
 40
53.280000000000001
  1
RBD 10 20 3 2 0
  0
TEXT
  5
84
  8
Z88FLA
 10
-6000.0
 20
1721.28
 30
0.0
 40
53.280000000000001
  1
Z88I5.TXT 0
  0
POINT
  5
85
  8
Z88PKT
 10
0.0
 20
2000.0
 30
0.0
  0
TEXT
  5
86
  8
Z88KNR
 10
0.0
 20
2000.0
 30
0.0
 40
53.280000000000001
  1
P 1
  0
POINT
  5
87
  8
Z88PKT
 10
0.0
 20
0.0
 30
0.0
  0
TEXT
  5
88
  8
Z88KNR
 10
0.0
 20
0.0
 30
0.0
 40
53.280000000000001
  1
P 2
  0
POINT
  5
89
  8
Z88PKT
 10
1000.0
 20
1000.0
 30
2000.0
  0
TEXT
  5
8A
  8
Z88KNR
 10
1000.0
 20
1000.0
 30
2000.0
 40
53.280000000000001
  1
P 3
  0
POINT
  5
8B
  8
Z88PKT
 10
2000.0
 20
2000.0
 30
0.0
  0
TEXT
  5
8C
  8
Z88KNR
 10
2000.0
 20
2000.0
 30
0.0
 40
53.280000000000001
  1
P 4
  0
POINT
  5
8D
  8
Z88PKT
 10
2000.0
 20
0.0
 30
0.0
  0
TEXT
  5
8E
  8
Z88KNR
 10
2000.0
 20
0.0
 30
0.0
 40
53.280000000000001
  1
P 5
  0
POINT
  5
8F
  8
Z88PKT
 10
3000.0
 20
1000.0
 30
2000.0
  0
TEXT
  5
90
  8
Z88KNR
 10
3000.0
 20
1000.0
 30
2000.0
 40
53.280000000000001
  1
P 6
  0
POINT
  5
91
  8
Z88PKT
 10
4000.0
 20
2000.0
 30
0.0
  0
TEXT
  5
92
  8
Z88KNR
 10
4000.0
 20
2000.0
 30
0.0
 40
53.280000000000001
  1
P 7
  0
POINT
  5
93
  8
Z88PKT
 10
4000.0
 20
0.0
 30
0.0
  0
TEXT
  5
94
  8
Z88KNR
 10
4000.0
 20
0.0
 30
0.0
 40
53.280000000000001
  1
P 8
  0
POINT
  5
95
  8
Z88PKT
 10
5000.0
 20
1000.0
 30
2000.0
  0
TEXT
  5
96
  8
Z88KNR
 10
5000.0
 20
1000.0
 30
2000.0
 40
53.280000000000001
  1
P 9
  0
POINT
  5
97
  8
Z88PKT
 10
6000.0
 20
2000.0
 30
0.0
  0
TEXT
  5
98
  8
Z88KNR
 10
6000.0
 20
2000.0
 30
0.0
 40
53.280000000000001
  1
P 10
  0
POINT
  5
99
  8
Z88PKT
 10
6000.0
 20
0.0
 30
0.0
  0
TEXT
  5
9A
  8
Z88KNR
 10
6000.0
 20
0.0
 30
0.0
 40
53.280000000000001
  1
P 11
  0
POINT
  5
9B
  8
Z88PKT
 10
7000.0
 20
1000.0
 30
2000.0
  0
TEXT
  5
9C
  8
Z88KNR
 10
7000.0
 20
1000.0
 30
2000.0
 40
53.280000000000001
  1
P 12
  0
POINT
  5
9D
  8
Z88PKT
 10
8000.0
 20
2000.0
 30
0.0
  0
TEXT
  5
9E
  8
Z88KNR
 10
8000.0
 20
2000.0
 30
0.0
 40
53.280000000000001
  1
P 13
  0
POINT
  5
9F
  8
Z88PKT
 10
8000.0
 20
0.0
 30
0.0
  0
TEXT
  5
A0
  8
Z88KNR
 10
8000.0
 20
0.0
 30
0.0
 40
53.280000000000001
  1
P 14
  0
POINT
  5
A1
  8
Z88PKT
 10
9000.0
 20
1000.0
 30
2000.0
  0
TEXT
  5
A2
  8
Z88KNR
 10
9000.0
 20
1000.0
 30
2000.0
 40
53.280000000000001
  1
P 15
  0
POINT
  5
A3
  8
Z88PKT
 10
10000.0
 20
2000.0
 30
0.0
  0
TEXT
  5
A4
  8
Z88KNR
 10
10000.0
 20
2000.0
 30
0.0
 40
53.280000000000001
  1
P 16
  0
POINT
  5
A5
  8
Z88PKT
 10
10000.0
 20
0.0
 30
0.0
  0
TEXT
  5
A6
  8
Z88KNR
 10
10000.0
 20
0.0
 30
0.0
 40
53.280000000000001
  1
P 17
  0
POINT
  5
A7
  8
Z88PKT
 10
11000.0
 20
1000.0
 30
2000.0
  0
TEXT
  5
A8
  8
Z88KNR
 10
11000.0
 20
1000.0
 30
2000.0
 40
53.280000000000001
  1
P 18
  0
POINT
  5
A9
  8
Z88PKT
 10
12000.0
 20
2000.0
 30
0.0
  0
TEXT
  5
AA
  8
Z88KNR
 10
12000.0
 20
2000.0
 30
0.0
 40
53.280000000000001
  1
P 19
  0
POINT
  5
AB
  8
Z88PKT
 10
12000.0
 20
0.0
 30
0.0
  0
TEXT
  5
AC
  8
Z88KNR
 10
12000.0
 20
0.0
 30
0.0
 40
53.280000000000001
  1
P 20
  0
TEXT
  5
AD
  8
Z88EIO
 10
0.0
 20
1000.0
 30
0.0
 40
53.280000000000001
  1
FE 1 4
  0
TEXT
  5
AE
  8
Z88EIO
 10
2000.0
 20
1000.0
 30
0.0
 40
53.280000000000001
  1
FE 2 4
  0
TEXT
  5
AF
  8
Z88EIO
 10
4000.0
 20
1000.0
 30
0.0
 40
53.280000000000001
  1
FE 3 4
  0
TEXT
  5
B0
  8
Z88EIO
 10
6000.0
 20
1000.0
 30
0.0
 40
53.280000000000001
  1
FE 4 4
  0
TEXT
  5
B1
  8
Z88EIO
 10
8000.0
 20
1000.0
 30
0.0
 40
53.280000000000001
  1
FE 5 4
  0
TEXT
  5
B2
  8
Z88EIO
 10
10000.0
 20
1000.0
 30
0.0
 40
53.280000000000001
  1
FE 6 4
  0
TEXT
  5
B3
  8
Z88EIO
 10
12000.0
 20
1000.0
 30
0.0
 40
53.280000000000001
  1
FE 7 4
  0
TEXT
  5
B4
  8
Z88EIO
 10
1000.0
 20
2000.0
 30
0.0
 40
53.280000000000001
  1
FE 8 4
  0
TEXT
  5
B5
  8
Z88EIO
 10
1000.0
 20
0.0
 30
0.0
 40
53.280000000000001
  1
FE 9 4
  0
TEXT
  5
B6
  8
Z88EIO
 10
3000.0
 20
2000.0
 30
0.0
 40
53.280000000000001
  1
FE 10 4
  0
TEXT
  5
B7
  8
Z88EIO
 10
3000.0
 20
0.0
 30
0.0
 40
53.280000000000001
  1
FE 11 4
  0
TEXT
  5
B8
  8
Z88EIO
 10
5000.0
 20
2000.0
 30
0.0
 40
53.280000000000001
  1
FE 12 4
  0
TEXT
  5
B9
  8
Z88EIO
 10
5000.0
 20
0.0
 30
0.0
 40
53.280000000000001
  1
FE 13 4
  0
TEXT
  5
BA
  8
Z88EIO
 10
7000.0
 20
2000.0
 30
0.0
 40
53.280000000000001
  1
FE 14 4
  0
TEXT
  5
BB
  8
Z88EIO
 10
7000.0
 20
0.0
 30
0.0
 40
53.280000000000001
  1
FE 15 4
  0
TEXT
  5
BC
  8
Z88EIO
 10
9000.0
 20
2000.0
 30
0.0
 40
53.280000000000001
  1
FE 16 4
  0
TEXT
  5
BD
  8
Z88EIO
 10
9000.0
 20
0.0
 30
0.0
 40
53.280000000000001
  1
FE 17 4
  0
TEXT
  5
BE
  8
Z88EIO
 10
11000.0
 20
2000.0
 30
0.0
 40
53.280000000000001
  1
FE 18 4
  0
TEXT
  5
BF
  8
Z88EIO
 10
11000.0
 20
0.0
 30
0.0
 40
53.280000000000001
  1
FE 19 4
  0
TEXT
  5
C0
  8
Z88EIO
 10
500.0
 20
1500.0
 30
1000.0
 40
53.280000000000001
  1
FE 20 4
  0
TEXT
  5
C1
  8
Z88EIO
 10
2500.0
 20
1500.0
 30
1000.0
 40
53.280000000000001
  1
FE 21 4
  0
TEXT
  5
C2
  8
Z88EIO
 10
4500.0
 20
1500.0
 30
1000.0
 40
53.280000000000001
  1
FE 22 4
  0
TEXT
  5
C3
  8
Z88EIO
 10
6500.0
 20
1500.0
 30
1000.0
 40
53.280000000000001
  1
FE 23 4
  0
TEXT
  5
C4
  8
Z88EIO
 10
8500.0
 20
1500.0
 30
1000.0
 40
53.280000000000001
  1
FE 24 4
  0
TEXT
  5
C5
  8
Z88EIO
 10
10500.0
 20
1500.0
 30
1000.0
 40
53.280000000000001
  1
FE 25 4
  0
TEXT
  5
C6
  8
Z88EIO
 10
500.0
 20
500.0
 30
1000.0
 40
53.280000000000001
  1
FE 26 4
  0
TEXT
  5
C7
  8
Z88EIO
 10
2500.0
 20
500.0
 30
1000.0
 40
53.280000000000001
  1
FE 27 4
  0
TEXT
  5
C8
  8
Z88EIO
 10
4500.0
 20
500.0
 30
1000.0
 40
53.280000000000001
  1
FE 28 4
  0
TEXT
  5
C9
  8
Z88EIO
 10
6500.0
 20
500.0
 30
1000.0
 40
53.280000000000001
  1
FE 29 4
  0
TEXT
  5
CA
  8
Z88EIO
 10
8500.0
 20
500.0
 30
1000.0
 40
53.280000000000001
  1
FE 30 4
  0
TEXT
  5
CB
  8
Z88EIO
 10
10500.0
 20
500.0
 30
1000.0
 40
53.280000000000001
  1
FE 31 4
  0
TEXT
  5
CC
  8
Z88EIO
 10
1500.0
 20
1500.0
 30
1000.0
 40
53.280000000000001
  1
FE 32 4
  0
TEXT
  5
CD
  8
Z88EIO
 10
3500.0
 20
1500.0
 30
1000.0
 40
53.280000000000001
  1
FE 33 4
  0
TEXT
  5
CE
  8
Z88EIO
 10
5500.0
 20
1500.0
 30
1000.0
 40
53.280000000000001
  1
FE 34 4
  0
TEXT
  5
CF
  8
Z88EIO
 10
7500.0
 20
1500.0
 30
1000.0
 40
53.280000000000001
  1
FE 35 4
  0
TEXT
  5
D0
  8
Z88EIO
 10
9500.0
 20
1500.0
 30
1000.0
 40
53.280000000000001
  1
FE 36 4
  0
TEXT
  5
D1
  8
Z88EIO
 10
11500.0
 20
1500.0
 30
1000.0
 40
53.280000000000001
  1
FE 37 4
  0
TEXT
  5
D2
  8
Z88EIO
 10
1500.0
 20
500.0
 30
1000.0
 40
53.280000000000001
  1
FE 38 4
  0
TEXT
  5
D3
  8
Z88EIO
 10
3500.0
 20
500.0
 30
1000.0
 40
53.280000000000001
  1
FE 39 4
  0
TEXT
  5
D4
  8
Z88EIO
 10
5500.0
 20
500.0
 30
1000.0
 40
53.280000000000001
  1
FE 40 4
  0
TEXT
  5
D5
  8
Z88EIO
 10
7500.0
 20
500.0
 30
1000.0
 40
53.280000000000001
  1
FE 41 4
  0
TEXT
  5
D6
  8
Z88EIO
 10
9500.0
 20
500.0
 30
1000.0
 40
53.280000000000001
  1
FE 42 4
  0
TEXT
  5
D7
  8
Z88EIO
 10
11500.0
 20
500.0
 30
1000.0
 40
53.280000000000001
  1
FE 43 4
  0
TEXT
  5
D8
  8
Z88EIO
 10
2000.0
 20
1000.0
 30
2000.0
 40
53.280000000000001
  1
FE 44 4
  0
TEXT
  5
D9
  8
Z88EIO
 10
4000.0
 20
1000.0
 30
2000.0
 40
53.280000000000001
  1
FE 45 4
  0
TEXT
  5
DA
  8
Z88EIO
 10
6000.0
 20
1000.0
 30
2000.0
 40
53.280000000000001
  1
FE 46 4
  0
TEXT
  5
DB
  8
Z88EIO
 10
8000.0
 20
1000.0
 30
2000.0
 40
53.280000000000001
  1
FE 47 4
  0
TEXT
  5
DC
  8
Z88EIO
 10
10000.0
 20
1000.0
 30
2000.0
 40
53.280000000000001
  1
FE 48 4
  0
TEXT
  5
DD
  8
Z88EIO
 10
1000.0
 20
1000.0
 30
0.0
 40
53.280000000000001
  1
FE 49 4
  0
TEXT
  5
DE
  8
Z88EIO
 10
3000.0
 20
1000.0
 30
0.0
 40
53.280000000000001
  1
FE 50 4
  0
TEXT
  5
DF
  8
Z88EIO
 10
5000.0
 20
1000.0
 30
0.0
 40
53.280000000000001
  1
FE 51 4
  0
TEXT
  5
E0
  8
Z88EIO
 10
7000.0
 20
1000.0
 30
0.0
 40
53.280000000000001
  1
FE 52 4
  0
TEXT
  5
E1
  8
Z88EIO
 10
9000.0
 20
1000.0
 30
0.0
 40
53.280000000000001
  1
FE 53 4
  0
TEXT
  5
E2
  8
Z88EIO
 10
11000.0
 20
1000.0
 30
0.0
 40
53.280000000000001
  1
FE 54 4
  0
LINE
  5
E3
  8
Z88NET
 10
0.0
 20
2000.0
 30
0.0
 11
0.0
 21
0.0
 31
0.0
  0
LINE
  5
E4
  8
Z88NET
 10
2000.0
 20
2000.0
 30
0.0
 11
2000.0
 21
0.0
 31
0.0
  0
LINE
  5
E5
  8
Z88NET
 10
4000.0
 20
2000.0
 30
0.0
 11
4000.0
 21
0.0
 31
0.0
  0
LINE
  5
E6
  8
Z88NET
 10
6000.0
 20
2000.0
 30
0.0
 11
6000.0
 21
0.0
 31
0.0
  0
LINE
  5
E7
  8
Z88NET
 10
8000.0
 20
2000.0
 30
0.0
 11
8000.0
 21
0.0
 31
0.0
  0
LINE
  5
E8
  8
Z88NET
 10
10000.0
 20
2000.0
 30
0.0
 11
10000.0
 21
0.0
 31
0.0
  0
LINE
  5
E9
  8
Z88NET
 10
12000.0
 20
2000.0
 30
0.0
 11
12000.0
 21
0.0
 31
0.0
  0
LINE
  5
EA
  8
Z88NET
 10
0.0
 20
2000.0
 30
0.0
 11
2000.0
 21
2000.0
 31
0.0
  0
LINE
  5
EB
  8
Z88NET
 10
0.0
 20
0.0
 30
0.0
 11
2000.0
 21
0.0
 31
0.0
  0
LINE
  5
EC
  8
Z88NET
 10
2000.0
 20
2000.0
 30
0.0
 11
4000.0
 21
2000.0
 31
0.0
  0
LINE
  5
ED
  8
Z88NET
 10
2000.0
 20
0.0
 30
0.0
 11
4000.0
 21
0.0
 31
0.0
  0
LINE
  5
EE
  8
Z88NET
 10
4000.0
 20
2000.0
 30
0.0
 11
6000.0
 21
2000.0
 31
0.0
  0
LINE
  5
EF
  8
Z88NET
 10
4000.0
 20
0.0
 30
0.0
 11
6000.0
 21
0.0
 31
0.0
  0
LINE
  5
F0
  8
Z88NET
 10
6000.0
 20
2000.0
 30
0.0
 11
8000.0
 21
2000.0
 31
0.0
  0
LINE
  5
F1
  8
Z88NET
 10
6000.0
 20
0.0
 30
0.0
 11
8000.0
 21
0.0
 31
0.0
  0
LINE
  5
F2
  8
Z88NET
 10
8000.0
 20
2000.0
 30
0.0
 11
10000.0
 21
2000.0
 31
0.0
  0
LINE
  5
F3
  8
Z88NET
 10
8000.0
 20
0.0
 30
0.0
 11
10000.0
 21
0.0
 31
0.0
  0
LINE
  5
F4
  8
Z88NET
 10
10000.0
 20
2000.0
 30
0.0
 11
12000.0
 21
2000.0
 31
0.0
  0
LINE
  5
F5
  8
Z88NET
 10
10000.0
 20
0.0
 30
0.0
 11
12000.0
 21
0.0
 31
0.0
  0
LINE
  5
F6
  8
Z88NET
 10
0.0
 20
2000.0
 30
0.0
 11
1000.0
 21
1000.0
 31
2000.0
  0
LINE
  5
F7
  8
Z88NET
 10
2000.0
 20
2000.0
 30
0.0
 11
3000.0
 21
1000.0
 31
2000.0
  0
LINE
  5
F8
  8
Z88NET
 10
4000.0
 20
2000.0
 30
0.0
 11
5000.0
 21
1000.0
 31
2000.0
  0
LINE
  5
F9
  8
Z88NET
 10
6000.0
 20
2000.0
 30
0.0
 11
7000.0
 21
1000.0
 31
2000.0
  0
LINE
  5
FA
  8
Z88NET
 10
8000.0
 20
2000.0
 30
0.0
 11
9000.0
 21
1000.0
 31
2000.0
  0
LINE
  5
FB
  8
Z88NET
 10
10000.0
 20
2000.0
 30
0.0
 11
11000.0
 21
1000.0
 31
2000.0
  0
LINE
  5
FC
  8
Z88NET
 10
0.0
 20
0.0
 30
0.0
 11
1000.0
 21
1000.0
 31
2000.0
  0
LINE
  5
FD
  8
Z88NET
 10
2000.0
 20
0.0
 30
0.0
 11
3000.0
 21
1000.0
 31
2000.0
  0
LINE
  5
FE
  8
Z88NET
 10
4000.0
 20
0.0
 30
0.0
 11
5000.0
 21
1000.0
 31
2000.0
  0
LINE
  5
FF
  8
Z88NET
 10
6000.0
 20
0.0
 30
0.0
 11
7000.0
 21
1000.0
 31
2000.0
  0
LINE
  5
100
  8
Z88NET
 10
8000.0
 20
0.0
 30
0.0
 11
9000.0
 21
1000.0
 31
2000.0
  0
LINE
  5
101
  8
Z88NET
 10
10000.0
 20
0.0
 30
0.0
 11
11000.0
 21
1000.0
 31
2000.0
  0
LINE
  5
102
  8
Z88NET
 10
1000.0
 20
1000.0
 30
2000.0
 11
2000.0
 21
2000.0
 31
0.0
  0
LINE
  5
103
  8
Z88NET
 10
3000.0
 20
1000.0
 30
2000.0
 11
4000.0
 21
2000.0
 31
0.0
  0
LINE
  5
104
  8
Z88NET
 10
5000.0
 20
1000.0
 30
2000.0
 11
6000.0
 21
2000.0
 31
0.0
  0
LINE
  5
105
  8
Z88NET
 10
7000.0
 20
1000.0
 30
2000.0
 11
8000.0
 21
2000.0
 31
0.0
  0
LINE
  5
106
  8
Z88NET
 10
9000.0
 20
1000.0
 30
2000.0
 11
10000.0
 21
2000.0
 31
0.0
  0
LINE
  5
107
  8
Z88NET
 10
11000.0
 20
1000.0
 30
2000.0
 11
12000.0
 21
2000.0
 31
0.0
  0
LINE
  5
108
  8
Z88NET
 10
1000.0
 20
1000.0
 30
2000.0
 11
2000.0
 21
0.0
 31
0.0
  0
LINE
  5
109
  8
Z88NET
 10
3000.0
 20
1000.0
 30
2000.0
 11
4000.0
 21
0.0
 31
0.0
  0
LINE
  5
10A
  8
Z88NET
 10
5000.0
 20
1000.0
 30
2000.0
 11
6000.0
 21
0.0
 31
0.0
  0
LINE
  5
10B
  8
Z88NET
 10
7000.0
 20
1000.0
 30
2000.0
 11
8000.0
 21
0.0
 31
0.0
  0
LINE
  5
10C
  8
Z88NET
 10
9000.0
 20
1000.0
 30
2000.0
 11
10000.0
 21
0.0
 31
0.0
  0
LINE
  5
10D
  8
Z88NET
 10
11000.0
 20
1000.0
 30
2000.0
 11
12000.0
 21
0.0
 31
0.0
  0
LINE
  5
10E
  8
Z88NET
 10
1000.0
 20
1000.0
 30
2000.0
 11
3000.0
 21
1000.0
 31
2000.0
  0
LINE
  5
10F
  8
Z88NET
 10
3000.0
 20
1000.0
 30
2000.0
 11
5000.0
 21
1000.0
 31
2000.0
  0
LINE
  5
110
  8
Z88NET
 10
5000.0
 20
1000.0
 30
2000.0
 11
7000.0
 21
1000.0
 31
2000.0
  0
LINE
  5
111
  8
Z88NET
 10
7000.0
 20
1000.0
 30
2000.0
 11
9000.0
 21
1000.0
 31
2000.0
  0
LINE
  5
112
  8
Z88NET
 10
9000.0
 20
1000.0
 30
2000.0
 11
11000.0
 21
1000.0
 31
2000.0
  0
LINE
  5
113
  8
Z88NET
 10
0.0
 20
0.0
 30
0.0
 11
2000.0
 21
2000.0
 31
0.0
  0
LINE
  5
114
  8
Z88NET
 10
2000.0
 20
0.0
 30
0.0
 11
4000.0
 21
2000.0
 31
0.0
  0
LINE
  5
115
  8
Z88NET
 10
4000.0
 20
0.0
 30
0.0
 11
6000.0
 21
2000.0
 31
0.0
  0
LINE
  5
116
  8
Z88NET
 10
6000.0
 20
0.0
 30
0.0
 11
8000.0
 21
2000.0
 31
0.0
  0
LINE
  5
117
  8
Z88NET
 10
8000.0
 20
0.0
 30
0.0
 11
10000.0
 21
2000.0
 31
0.0
  0
LINE
  5
118
  8
Z88NET
 10
10000.0
 20
0.0
 30
0.0
 11
12000.0
 21
2000.0
 31
0.0
  0
ENDSEC
  0
EOF
